<?xml version="1.0" encoding="utf-8"?>
<!-- Generator: Adobe Illustrator 23.0.5, SVG Export Plug-In . SVG Version: 6.00 Build 0)  -->
<svg version="1.1" id="BACKGROUND" xmlns="http://www.w3.org/2000/svg" xmlns:xlink="http://www.w3.org/1999/xlink" x="0px" y="0px"
	 viewBox="0 0 750 500" style="enable-background:new 0 0 750 500;" xml:space="preserve">
<style type="text/css">
	.st0{fill:#DFE6C8;}
	.st1{clip-path:url(#SVGID_2_);}
	.st2{fill:none;stroke:#CEDBA1;stroke-width:2;stroke-miterlimit:10;}
	.st3{fill:#BFCD92;}
	.st4{fill:#ABBD6F;}
	.st5{fill:#4A5C45;}
	.st6{fill:#82C269;}
	.st7{fill:#C2E1B5;}
	.st8{fill:#8CC775;}
	.st9{fill:none;stroke:#778F47;stroke-width:2.899;stroke-miterlimit:10;}
	.st10{fill:none;stroke:#171717;stroke-width:2.899;stroke-miterlimit:10;}
	.st11{fill:none;stroke:#171717;stroke-width:2.6056;stroke-miterlimit:10;}
	.st12{fill:none;stroke:#4A5C45;stroke-width:2.6056;stroke-miterlimit:10;}
	.st13{fill:none;stroke:#778F47;stroke-width:2.6056;stroke-miterlimit:10;}
	.st14{fill:#789049;}
	.st15{fill:#171717;}
	.st16{fill:#789049;stroke:#778F47;stroke-miterlimit:10;}
	.st17{fill:#4A5C45;stroke:#4A5C45;stroke-miterlimit:10;}
	.st18{fill:#171717;stroke:#171717;stroke-miterlimit:10;}
	.st19{fill:none;stroke:#171717;stroke-width:2;stroke-miterlimit:10;}
	.st20{fill:none;stroke:#778F47;stroke-width:2;stroke-miterlimit:10;}
	.st21{fill:none;stroke:#4A5C45;stroke-width:2;stroke-miterlimit:10;}
	.st22{fill:none;stroke:#171717;stroke-width:2;stroke-linecap:round;stroke-miterlimit:10;}
	.st23{fill:none;stroke:#778F47;stroke-width:2;stroke-linecap:round;stroke-miterlimit:10;}
	.st24{fill:none;stroke:#4A5C45;stroke-width:2;stroke-linecap:round;stroke-miterlimit:10;}
</style>
<g>
	<g>
		<path class="st0" d="M143.96,64.32c-1.11,0-2.01,0.9-2.01,2.01c0,1.11,0.9,2.01,2.01,2.01c1.11,0,2.01-0.9,2.01-2.01
			C145.97,65.22,145.07,64.32,143.96,64.32z"/>
		<path class="st0" d="M155.52,64.32c-1.11,0-2.01,0.9-2.01,2.01c0,1.11,0.9,2.01,2.01,2.01c1.11,0,2.01-0.9,2.01-2.01
			C157.53,65.22,156.63,64.32,155.52,64.32z"/>
		<path class="st0" d="M167.08,64.32c-1.11,0-2.01,0.9-2.01,2.01c0,1.11,0.9,2.01,2.01,2.01c1.11,0,2.01-0.9,2.01-2.01
			C169.09,65.22,168.19,64.32,167.08,64.32z"/>
		<path class="st0" d="M178.64,64.32c-1.11,0-2.01,0.9-2.01,2.01c0,1.11,0.9,2.01,2.01,2.01c1.11,0,2.01-0.9,2.01-2.01
			C180.65,65.22,179.75,64.32,178.64,64.32z"/>
		<path class="st0" d="M190.2,64.32c-1.11,0-2.01,0.9-2.01,2.01c0,1.11,0.9,2.01,2.01,2.01c1.11,0,2.01-0.9,2.01-2.01
			C192.21,65.22,191.31,64.32,190.2,64.32z"/>
		<path class="st0" d="M149.58,73.01c-1.11,0-2.01,0.9-2.01,2.01c0,1.11,0.9,2.01,2.01,2.01s2.01-0.9,2.01-2.01
			C151.59,73.91,150.69,73.01,149.58,73.01z"/>
		<path class="st0" d="M161.14,73.01c-1.11,0-2.01,0.9-2.01,2.01c0,1.11,0.9,2.01,2.01,2.01c1.11,0,2.01-0.9,2.01-2.01
			C163.15,73.91,162.25,73.01,161.14,73.01z"/>
		<path class="st0" d="M172.7,73.01c-1.11,0-2.01,0.9-2.01,2.01c0,1.11,0.9,2.01,2.01,2.01c1.11,0,2.01-0.9,2.01-2.01
			C174.71,73.91,173.81,73.01,172.7,73.01z"/>
		<path class="st0" d="M184.26,73.01c-1.11,0-2.01,0.9-2.01,2.01c0,1.11,0.9,2.01,2.01,2.01c1.11,0,2.01-0.9,2.01-2.01
			C186.27,73.91,185.37,73.01,184.26,73.01z"/>
		<path class="st0" d="M195.82,73.01c-1.11,0-2.01,0.9-2.01,2.01c0,1.11,0.9,2.01,2.01,2.01c1.11,0,2.01-0.9,2.01-2.01
			C197.83,73.91,196.93,73.01,195.82,73.01z"/>
		<path class="st0" d="M143.96,82.72c-1.11,0-2.01,0.9-2.01,2.01c0,1.11,0.9,2.01,2.01,2.01c1.11,0,2.01-0.9,2.01-2.01
			C145.97,83.62,145.07,82.72,143.96,82.72z"/>
		<path class="st0" d="M155.52,82.72c-1.11,0-2.01,0.9-2.01,2.01c0,1.11,0.9,2.01,2.01,2.01c1.11,0,2.01-0.9,2.01-2.01
			C157.53,83.62,156.63,82.72,155.52,82.72z"/>
		<path class="st0" d="M167.08,82.72c-1.11,0-2.01,0.9-2.01,2.01c0,1.11,0.9,2.01,2.01,2.01c1.11,0,2.01-0.9,2.01-2.01
			C169.09,83.62,168.19,82.72,167.08,82.72z"/>
		<path class="st0" d="M178.64,82.72c-1.11,0-2.01,0.9-2.01,2.01c0,1.11,0.9,2.01,2.01,2.01c1.11,0,2.01-0.9,2.01-2.01
			C180.65,83.62,179.75,82.72,178.64,82.72z"/>
		<path class="st0" d="M190.2,82.72c-1.11,0-2.01,0.9-2.01,2.01c0,1.11,0.9,2.01,2.01,2.01c1.11,0,2.01-0.9,2.01-2.01
			C192.21,83.62,191.31,82.72,190.2,82.72z"/>
		<path class="st0" d="M149.58,91.41c-1.11,0-2.01,0.9-2.01,2.01c0,1.11,0.9,2.01,2.01,2.01s2.01-0.9,2.01-2.01
			C151.59,92.31,150.69,91.41,149.58,91.41z"/>
		<path class="st0" d="M161.14,91.41c-1.11,0-2.01,0.9-2.01,2.01c0,1.11,0.9,2.01,2.01,2.01c1.11,0,2.01-0.9,2.01-2.01
			C163.15,92.31,162.25,91.41,161.14,91.41z"/>
		<path class="st0" d="M172.7,91.41c-1.11,0-2.01,0.9-2.01,2.01c0,1.11,0.9,2.01,2.01,2.01c1.11,0,2.01-0.9,2.01-2.01
			C174.71,92.31,173.81,91.41,172.7,91.41z"/>
		<path class="st0" d="M184.26,91.41c-1.11,0-2.01,0.9-2.01,2.01c0,1.11,0.9,2.01,2.01,2.01c1.11,0,2.01-0.9,2.01-2.01
			C186.27,92.31,185.37,91.41,184.26,91.41z"/>
		<path class="st0" d="M195.82,91.41c-1.11,0-2.01,0.9-2.01,2.01c0,1.11,0.9,2.01,2.01,2.01c1.11,0,2.01-0.9,2.01-2.01
			C197.83,92.31,196.93,91.41,195.82,91.41z"/>
		<path class="st0" d="M143.96,101.12c-1.11,0-2.01,0.9-2.01,2.01c0,1.11,0.9,2.01,2.01,2.01c1.11,0,2.01-0.9,2.01-2.01
			C145.97,102.02,145.07,101.12,143.96,101.12z"/>
		<path class="st0" d="M155.52,101.12c-1.11,0-2.01,0.9-2.01,2.01c0,1.11,0.9,2.01,2.01,2.01c1.11,0,2.01-0.9,2.01-2.01
			C157.53,102.02,156.63,101.12,155.52,101.12z"/>
		<path class="st0" d="M167.08,101.12c-1.11,0-2.01,0.9-2.01,2.01c0,1.11,0.9,2.01,2.01,2.01c1.11,0,2.01-0.9,2.01-2.01
			C169.09,102.02,168.19,101.12,167.08,101.12z"/>
		<path class="st0" d="M178.64,101.12c-1.11,0-2.01,0.9-2.01,2.01c0,1.11,0.9,2.01,2.01,2.01c1.11,0,2.01-0.9,2.01-2.01
			C180.65,102.02,179.75,101.12,178.64,101.12z"/>
		<path class="st0" d="M190.2,101.12c-1.11,0-2.01,0.9-2.01,2.01c0,1.11,0.9,2.01,2.01,2.01c1.11,0,2.01-0.9,2.01-2.01
			C192.21,102.02,191.31,101.12,190.2,101.12z"/>
		<path class="st0" d="M149.58,109.81c-1.11,0-2.01,0.9-2.01,2.01s0.9,2.01,2.01,2.01s2.01-0.9,2.01-2.01
			S150.69,109.81,149.58,109.81z"/>
		<path class="st0" d="M161.14,109.81c-1.11,0-2.01,0.9-2.01,2.01s0.9,2.01,2.01,2.01c1.11,0,2.01-0.9,2.01-2.01
			S162.25,109.81,161.14,109.81z"/>
		<path class="st0" d="M172.7,109.81c-1.11,0-2.01,0.9-2.01,2.01s0.9,2.01,2.01,2.01c1.11,0,2.01-0.9,2.01-2.01
			S173.81,109.81,172.7,109.81z"/>
		<path class="st0" d="M184.26,109.81c-1.11,0-2.01,0.9-2.01,2.01s0.9,2.01,2.01,2.01c1.11,0,2.01-0.9,2.01-2.01
			S185.37,109.81,184.26,109.81z"/>
		<path class="st0" d="M195.82,109.81c-1.11,0-2.01,0.9-2.01,2.01s0.9,2.01,2.01,2.01c1.11,0,2.01-0.9,2.01-2.01
			S196.93,109.81,195.82,109.81z"/>
	</g>
	<g>
		<path class="st0" d="M400.98,207.05c-1.11,0-2.01,0.9-2.01,2.01c0,1.11,0.9,2.01,2.01,2.01c1.11,0,2.01-0.9,2.01-2.01
			C402.99,207.95,402.09,207.05,400.98,207.05z"/>
		<path class="st0" d="M412.54,207.05c-1.11,0-2.01,0.9-2.01,2.01c0,1.11,0.9,2.01,2.01,2.01c1.11,0,2.01-0.9,2.01-2.01
			C414.55,207.95,413.65,207.05,412.54,207.05z"/>
		<path class="st0" d="M424.1,207.05c-1.11,0-2.01,0.9-2.01,2.01c0,1.11,0.9,2.01,2.01,2.01c1.11,0,2.01-0.9,2.01-2.01
			C426.1,207.95,425.21,207.05,424.1,207.05z"/>
		<path class="st0" d="M435.66,207.05c-1.11,0-2.01,0.9-2.01,2.01c0,1.11,0.9,2.01,2.01,2.01c1.11,0,2.01-0.9,2.01-2.01
			C437.66,207.95,436.77,207.05,435.66,207.05z"/>
		<path class="st0" d="M447.22,207.05c-1.11,0-2.01,0.9-2.01,2.01c0,1.11,0.9,2.01,2.01,2.01s2.01-0.9,2.01-2.01
			C449.22,207.95,448.32,207.05,447.22,207.05z"/>
		<path class="st0" d="M406.6,215.74c-1.11,0-2.01,0.9-2.01,2.01c0,1.11,0.9,2.01,2.01,2.01c1.11,0,2.01-0.9,2.01-2.01
			C408.61,216.64,407.71,215.74,406.6,215.74z"/>
		<path class="st0" d="M418.16,215.74c-1.11,0-2.01,0.9-2.01,2.01c0,1.11,0.9,2.01,2.01,2.01c1.11,0,2.01-0.9,2.01-2.01
			C420.17,216.64,419.27,215.74,418.16,215.74z"/>
		<path class="st0" d="M429.72,215.74c-1.11,0-2.01,0.9-2.01,2.01c0,1.11,0.9,2.01,2.01,2.01c1.11,0,2.01-0.9,2.01-2.01
			C431.73,216.64,430.83,215.74,429.72,215.74z"/>
		<path class="st0" d="M441.28,215.74c-1.11,0-2.01,0.9-2.01,2.01c0,1.11,0.9,2.01,2.01,2.01c1.11,0,2.01-0.9,2.01-2.01
			C443.29,216.64,442.39,215.74,441.28,215.74z"/>
		<path class="st0" d="M452.84,215.74c-1.11,0-2.01,0.9-2.01,2.01c0,1.11,0.9,2.01,2.01,2.01c1.11,0,2.01-0.9,2.01-2.01
			C454.85,216.64,453.95,215.74,452.84,215.74z"/>
		<path class="st0" d="M400.98,225.45c-1.11,0-2.01,0.9-2.01,2.01s0.9,2.01,2.01,2.01c1.11,0,2.01-0.9,2.01-2.01
			S402.09,225.45,400.98,225.45z"/>
		<path class="st0" d="M412.54,225.45c-1.11,0-2.01,0.9-2.01,2.01s0.9,2.01,2.01,2.01c1.11,0,2.01-0.9,2.01-2.01
			S413.65,225.45,412.54,225.45z"/>
		<path class="st0" d="M424.1,225.45c-1.11,0-2.01,0.9-2.01,2.01s0.9,2.01,2.01,2.01c1.11,0,2.01-0.9,2.01-2.01
			S425.21,225.45,424.1,225.45z"/>
		<path class="st0" d="M435.66,225.45c-1.11,0-2.01,0.9-2.01,2.01s0.9,2.01,2.01,2.01c1.11,0,2.01-0.9,2.01-2.01
			S436.77,225.45,435.66,225.45z"/>
		<path class="st0" d="M447.22,225.45c-1.11,0-2.01,0.9-2.01,2.01s0.9,2.01,2.01,2.01s2.01-0.9,2.01-2.01
			S448.32,225.45,447.22,225.45z"/>
		<path class="st0" d="M406.6,234.14c-1.11,0-2.01,0.9-2.01,2.01c0,1.11,0.9,2.01,2.01,2.01c1.11,0,2.01-0.9,2.01-2.01
			C408.61,235.04,407.71,234.14,406.6,234.14z"/>
		<path class="st0" d="M418.16,234.14c-1.11,0-2.01,0.9-2.01,2.01c0,1.11,0.9,2.01,2.01,2.01c1.11,0,2.01-0.9,2.01-2.01
			C420.17,235.04,419.27,234.14,418.16,234.14z"/>
		<path class="st0" d="M429.72,234.14c-1.11,0-2.01,0.9-2.01,2.01c0,1.11,0.9,2.01,2.01,2.01c1.11,0,2.01-0.9,2.01-2.01
			C431.73,235.04,430.83,234.14,429.72,234.14z"/>
		<path class="st0" d="M441.28,234.14c-1.11,0-2.01,0.9-2.01,2.01c0,1.11,0.9,2.01,2.01,2.01c1.11,0,2.01-0.9,2.01-2.01
			C443.29,235.04,442.39,234.14,441.28,234.14z"/>
		<path class="st0" d="M452.84,234.14c-1.11,0-2.01,0.9-2.01,2.01c0,1.11,0.9,2.01,2.01,2.01c1.11,0,2.01-0.9,2.01-2.01
			C454.85,235.04,453.95,234.14,452.84,234.14z"/>
		<path class="st0" d="M400.98,243.85c-1.11,0-2.01,0.9-2.01,2.01c0,1.11,0.9,2.01,2.01,2.01c1.11,0,2.01-0.9,2.01-2.01
			C402.99,244.75,402.09,243.85,400.98,243.85z"/>
		<path class="st0" d="M412.54,243.85c-1.11,0-2.01,0.9-2.01,2.01c0,1.11,0.9,2.01,2.01,2.01c1.11,0,2.01-0.9,2.01-2.01
			C414.55,244.75,413.65,243.85,412.54,243.85z"/>
		<path class="st0" d="M424.1,243.85c-1.11,0-2.01,0.9-2.01,2.01c0,1.11,0.9,2.01,2.01,2.01c1.11,0,2.01-0.9,2.01-2.01
			C426.1,244.75,425.21,243.85,424.1,243.85z"/>
		<path class="st0" d="M435.66,243.85c-1.11,0-2.01,0.9-2.01,2.01c0,1.11,0.9,2.01,2.01,2.01c1.11,0,2.01-0.9,2.01-2.01
			C437.66,244.75,436.77,243.85,435.66,243.85z"/>
		<path class="st0" d="M447.22,243.85c-1.11,0-2.01,0.9-2.01,2.01c0,1.11,0.9,2.01,2.01,2.01s2.01-0.9,2.01-2.01
			C449.22,244.75,448.32,243.85,447.22,243.85z"/>
		<path class="st0" d="M406.6,252.54c-1.11,0-2.01,0.9-2.01,2.01c0,1.11,0.9,2.01,2.01,2.01c1.11,0,2.01-0.9,2.01-2.01
			C408.61,253.44,407.71,252.54,406.6,252.54z"/>
		<path class="st0" d="M418.16,252.54c-1.11,0-2.01,0.9-2.01,2.01c0,1.11,0.9,2.01,2.01,2.01c1.11,0,2.01-0.9,2.01-2.01
			C420.17,253.44,419.27,252.54,418.16,252.54z"/>
		<path class="st0" d="M429.72,252.54c-1.11,0-2.01,0.9-2.01,2.01c0,1.11,0.9,2.01,2.01,2.01c1.11,0,2.01-0.9,2.01-2.01
			C431.73,253.44,430.83,252.54,429.72,252.54z"/>
		<path class="st0" d="M441.28,252.54c-1.11,0-2.01,0.9-2.01,2.01c0,1.11,0.9,2.01,2.01,2.01c1.11,0,2.01-0.9,2.01-2.01
			C443.29,253.44,442.39,252.54,441.28,252.54z"/>
		<path class="st0" d="M452.84,252.54c-1.11,0-2.01,0.9-2.01,2.01c0,1.11,0.9,2.01,2.01,2.01c1.11,0,2.01-0.9,2.01-2.01
			C454.85,253.44,453.95,252.54,452.84,252.54z"/>
	</g>
	<g>
		<path class="st0" d="M141.57,195.8c-1.11,0-2.01,0.9-2.01,2.01c0,1.11,0.9,2.01,2.01,2.01c1.11,0,2.01-0.9,2.01-2.01
			C143.57,196.7,142.68,195.8,141.57,195.8z"/>
		<path class="st0" d="M153.13,195.8c-1.11,0-2.01,0.9-2.01,2.01c0,1.11,0.9,2.01,2.01,2.01c1.11,0,2.01-0.9,2.01-2.01
			C155.13,196.7,154.23,195.8,153.13,195.8z"/>
		<path class="st0" d="M164.69,195.8c-1.11,0-2.01,0.9-2.01,2.01c0,1.11,0.9,2.01,2.01,2.01c1.11,0,2.01-0.9,2.01-2.01
			C166.69,196.7,165.79,195.8,164.69,195.8z"/>
		<path class="st0" d="M176.24,195.8c-1.11,0-2.01,0.9-2.01,2.01c0,1.11,0.9,2.01,2.01,2.01s2.01-0.9,2.01-2.01
			C178.25,196.7,177.35,195.8,176.24,195.8z"/>
		<path class="st0" d="M187.8,195.8c-1.11,0-2.01,0.9-2.01,2.01c0,1.11,0.9,2.01,2.01,2.01c1.11,0,2.01-0.9,2.01-2.01
			C189.81,196.7,188.91,195.8,187.8,195.8z"/>
		<path class="st0" d="M147.19,204.49c-1.11,0-2.01,0.9-2.01,2.01c0,1.11,0.9,2.01,2.01,2.01c1.11,0,2.01-0.9,2.01-2.01
			C149.2,205.39,148.3,204.49,147.19,204.49z"/>
		<path class="st0" d="M158.75,204.49c-1.11,0-2.01,0.9-2.01,2.01c0,1.11,0.9,2.01,2.01,2.01c1.11,0,2.01-0.9,2.01-2.01
			C160.76,205.39,159.86,204.49,158.75,204.49z"/>
		<path class="st0" d="M170.31,204.49c-1.11,0-2.01,0.9-2.01,2.01c0,1.11,0.9,2.01,2.01,2.01c1.11,0,2.01-0.9,2.01-2.01
			C172.31,205.39,171.42,204.49,170.31,204.49z"/>
		<path class="st0" d="M181.87,204.49c-1.11,0-2.01,0.9-2.01,2.01c0,1.11,0.9,2.01,2.01,2.01c1.11,0,2.01-0.9,2.01-2.01
			C183.87,205.39,182.98,204.49,181.87,204.49z"/>
		<path class="st0" d="M193.43,204.49c-1.11,0-2.01,0.9-2.01,2.01c0,1.11,0.9,2.01,2.01,2.01c1.11,0,2.01-0.9,2.01-2.01
			C195.43,205.39,194.53,204.49,193.43,204.49z"/>
		<path class="st0" d="M141.57,214.2c-1.11,0-2.01,0.9-2.01,2.01c0,1.11,0.9,2.01,2.01,2.01c1.11,0,2.01-0.9,2.01-2.01
			C143.57,215.1,142.68,214.2,141.57,214.2z"/>
		<path class="st0" d="M153.13,214.2c-1.11,0-2.01,0.9-2.01,2.01c0,1.11,0.9,2.01,2.01,2.01c1.11,0,2.01-0.9,2.01-2.01
			C155.13,215.1,154.23,214.2,153.13,214.2z"/>
		<path class="st0" d="M164.69,214.2c-1.11,0-2.01,0.9-2.01,2.01c0,1.11,0.9,2.01,2.01,2.01c1.11,0,2.01-0.9,2.01-2.01
			C166.69,215.1,165.79,214.2,164.69,214.2z"/>
		<path class="st0" d="M176.24,214.2c-1.11,0-2.01,0.9-2.01,2.01c0,1.11,0.9,2.01,2.01,2.01s2.01-0.9,2.01-2.01
			C178.25,215.1,177.35,214.2,176.24,214.2z"/>
		<path class="st0" d="M187.8,214.2c-1.11,0-2.01,0.9-2.01,2.01c0,1.11,0.9,2.01,2.01,2.01c1.11,0,2.01-0.9,2.01-2.01
			C189.81,215.1,188.91,214.2,187.8,214.2z"/>
		<path class="st0" d="M147.19,222.89c-1.11,0-2.01,0.9-2.01,2.01c0,1.11,0.9,2.01,2.01,2.01c1.11,0,2.01-0.9,2.01-2.01
			C149.2,223.79,148.3,222.89,147.19,222.89z"/>
		<path class="st0" d="M158.75,222.89c-1.11,0-2.01,0.9-2.01,2.01c0,1.11,0.9,2.01,2.01,2.01c1.11,0,2.01-0.9,2.01-2.01
			C160.76,223.79,159.86,222.89,158.75,222.89z"/>
		<path class="st0" d="M170.31,222.89c-1.11,0-2.01,0.9-2.01,2.01c0,1.11,0.9,2.01,2.01,2.01c1.11,0,2.01-0.9,2.01-2.01
			C172.31,223.79,171.42,222.89,170.31,222.89z"/>
		<path class="st0" d="M181.87,222.89c-1.11,0-2.01,0.9-2.01,2.01c0,1.11,0.9,2.01,2.01,2.01c1.11,0,2.01-0.9,2.01-2.01
			C183.87,223.79,182.98,222.89,181.87,222.89z"/>
		<path class="st0" d="M193.43,222.89c-1.11,0-2.01,0.9-2.01,2.01c0,1.11,0.9,2.01,2.01,2.01c1.11,0,2.01-0.9,2.01-2.01
			C195.43,223.79,194.53,222.89,193.43,222.89z"/>
		<path class="st0" d="M141.57,232.6c-1.11,0-2.01,0.9-2.01,2.01c0,1.11,0.9,2.01,2.01,2.01c1.11,0,2.01-0.9,2.01-2.01
			C143.57,233.5,142.68,232.6,141.57,232.6z"/>
		<path class="st0" d="M153.13,232.6c-1.11,0-2.01,0.9-2.01,2.01c0,1.11,0.9,2.01,2.01,2.01c1.11,0,2.01-0.9,2.01-2.01
			C155.13,233.5,154.23,232.6,153.13,232.6z"/>
		<path class="st0" d="M164.69,232.6c-1.11,0-2.01,0.9-2.01,2.01c0,1.11,0.9,2.01,2.01,2.01c1.11,0,2.01-0.9,2.01-2.01
			C166.69,233.5,165.79,232.6,164.69,232.6z"/>
		<path class="st0" d="M176.24,232.6c-1.11,0-2.01,0.9-2.01,2.01c0,1.11,0.9,2.01,2.01,2.01s2.01-0.9,2.01-2.01
			C178.25,233.5,177.35,232.6,176.24,232.6z"/>
		<path class="st0" d="M187.8,232.6c-1.11,0-2.01,0.9-2.01,2.01c0,1.11,0.9,2.01,2.01,2.01c1.11,0,2.01-0.9,2.01-2.01
			C189.81,233.5,188.91,232.6,187.8,232.6z"/>
		<path class="st0" d="M147.19,241.29c-1.11,0-2.01,0.9-2.01,2.01c0,1.11,0.9,2.01,2.01,2.01c1.11,0,2.01-0.9,2.01-2.01
			C149.2,242.19,148.3,241.29,147.19,241.29z"/>
		<path class="st0" d="M158.75,241.29c-1.11,0-2.01,0.9-2.01,2.01c0,1.11,0.9,2.01,2.01,2.01c1.11,0,2.01-0.9,2.01-2.01
			C160.76,242.19,159.86,241.29,158.75,241.29z"/>
		<path class="st0" d="M170.31,241.29c-1.11,0-2.01,0.9-2.01,2.01c0,1.11,0.9,2.01,2.01,2.01c1.11,0,2.01-0.9,2.01-2.01
			C172.31,242.19,171.42,241.29,170.31,241.29z"/>
		<path class="st0" d="M181.87,241.29c-1.11,0-2.01,0.9-2.01,2.01c0,1.11,0.9,2.01,2.01,2.01c1.11,0,2.01-0.9,2.01-2.01
			C183.87,242.19,182.98,241.29,181.87,241.29z"/>
		<path class="st0" d="M193.43,241.29c-1.11,0-2.01,0.9-2.01,2.01c0,1.11,0.9,2.01,2.01,2.01c1.11,0,2.01-0.9,2.01-2.01
			C195.43,242.19,194.53,241.29,193.43,241.29z"/>
	</g>
	<g>
		<path class="st0" d="M603.84,203.35c-1.11,0-2.01,0.9-2.01,2.01c0,1.11,0.9,2.01,2.01,2.01c1.11,0,2.01-0.9,2.01-2.01
			C605.85,204.25,604.95,203.35,603.84,203.35z"/>
		<path class="st0" d="M615.4,203.35c-1.11,0-2.01,0.9-2.01,2.01c0,1.11,0.9,2.01,2.01,2.01c1.11,0,2.01-0.9,2.01-2.01
			C617.41,204.25,616.51,203.35,615.4,203.35z"/>
		<path class="st0" d="M626.96,203.35c-1.11,0-2.01,0.9-2.01,2.01c0,1.11,0.9,2.01,2.01,2.01c1.11,0,2.01-0.9,2.01-2.01
			C628.97,204.25,628.07,203.35,626.96,203.35z"/>
		<path class="st0" d="M638.52,203.35c-1.11,0-2.01,0.9-2.01,2.01c0,1.11,0.9,2.01,2.01,2.01c1.11,0,2.01-0.9,2.01-2.01
			C640.53,204.25,639.63,203.35,638.52,203.35z"/>
		<path class="st0" d="M650.08,203.35c-1.11,0-2.01,0.9-2.01,2.01c0,1.11,0.9,2.01,2.01,2.01c1.11,0,2.01-0.9,2.01-2.01
			C652.09,204.25,651.19,203.35,650.08,203.35z"/>
		<path class="st0" d="M609.46,212.04c-1.11,0-2.01,0.9-2.01,2.01c0,1.11,0.9,2.01,2.01,2.01c1.11,0,2.01-0.9,2.01-2.01
			C611.47,212.94,610.57,212.04,609.46,212.04z"/>
		<path class="st0" d="M621.02,212.04c-1.11,0-2.01,0.9-2.01,2.01c0,1.11,0.9,2.01,2.01,2.01c1.11,0,2.01-0.9,2.01-2.01
			C623.03,212.94,622.13,212.04,621.02,212.04z"/>
		<path class="st0" d="M632.58,212.04c-1.11,0-2.01,0.9-2.01,2.01c0,1.11,0.9,2.01,2.01,2.01c1.11,0,2.01-0.9,2.01-2.01
			C634.59,212.94,633.69,212.04,632.58,212.04z"/>
		<path class="st0" d="M644.14,212.04c-1.11,0-2.01,0.9-2.01,2.01c0,1.11,0.9,2.01,2.01,2.01c1.11,0,2.01-0.9,2.01-2.01
			C646.15,212.94,645.25,212.04,644.14,212.04z"/>
		<path class="st0" d="M655.7,212.04c-1.11,0-2.01,0.9-2.01,2.01c0,1.11,0.9,2.01,2.01,2.01c1.11,0,2.01-0.9,2.01-2.01
			C657.71,212.94,656.81,212.04,655.7,212.04z"/>
		<path class="st0" d="M603.84,221.75c-1.11,0-2.01,0.9-2.01,2.01c0,1.11,0.9,2.01,2.01,2.01c1.11,0,2.01-0.9,2.01-2.01
			C605.85,222.65,604.95,221.75,603.84,221.75z"/>
		<path class="st0" d="M615.4,221.75c-1.11,0-2.01,0.9-2.01,2.01c0,1.11,0.9,2.01,2.01,2.01c1.11,0,2.01-0.9,2.01-2.01
			C617.41,222.65,616.51,221.75,615.4,221.75z"/>
		<path class="st0" d="M626.96,221.75c-1.11,0-2.01,0.9-2.01,2.01c0,1.11,0.9,2.01,2.01,2.01c1.11,0,2.01-0.9,2.01-2.01
			C628.97,222.65,628.07,221.75,626.96,221.75z"/>
		<path class="st0" d="M638.52,221.75c-1.11,0-2.01,0.9-2.01,2.01c0,1.11,0.9,2.01,2.01,2.01c1.11,0,2.01-0.9,2.01-2.01
			C640.53,222.65,639.63,221.75,638.52,221.75z"/>
		<path class="st0" d="M650.08,221.75c-1.11,0-2.01,0.9-2.01,2.01c0,1.11,0.9,2.01,2.01,2.01c1.11,0,2.01-0.9,2.01-2.01
			C652.09,222.65,651.19,221.75,650.08,221.75z"/>
		<path class="st0" d="M609.46,230.44c-1.11,0-2.01,0.9-2.01,2.01c0,1.11,0.9,2.01,2.01,2.01c1.11,0,2.01-0.9,2.01-2.01
			C611.47,231.34,610.57,230.44,609.46,230.44z"/>
		<path class="st0" d="M621.02,230.44c-1.11,0-2.01,0.9-2.01,2.01c0,1.11,0.9,2.01,2.01,2.01c1.11,0,2.01-0.9,2.01-2.01
			C623.03,231.34,622.13,230.44,621.02,230.44z"/>
		<path class="st0" d="M632.58,230.44c-1.11,0-2.01,0.9-2.01,2.01c0,1.11,0.9,2.01,2.01,2.01c1.11,0,2.01-0.9,2.01-2.01
			C634.59,231.34,633.69,230.44,632.58,230.44z"/>
		<path class="st0" d="M644.14,230.44c-1.11,0-2.01,0.9-2.01,2.01c0,1.11,0.9,2.01,2.01,2.01c1.11,0,2.01-0.9,2.01-2.01
			C646.15,231.34,645.25,230.44,644.14,230.44z"/>
		<path class="st0" d="M655.7,230.44c-1.11,0-2.01,0.9-2.01,2.01c0,1.11,0.9,2.01,2.01,2.01c1.11,0,2.01-0.9,2.01-2.01
			C657.71,231.34,656.81,230.44,655.7,230.44z"/>
		<path class="st0" d="M603.84,240.15c-1.11,0-2.01,0.9-2.01,2.01c0,1.11,0.9,2.01,2.01,2.01c1.11,0,2.01-0.9,2.01-2.01
			C605.85,241.05,604.95,240.15,603.84,240.15z"/>
		<path class="st0" d="M615.4,240.15c-1.11,0-2.01,0.9-2.01,2.01c0,1.11,0.9,2.01,2.01,2.01c1.11,0,2.01-0.9,2.01-2.01
			C617.41,241.05,616.51,240.15,615.4,240.15z"/>
		<path class="st0" d="M626.96,240.15c-1.11,0-2.01,0.9-2.01,2.01c0,1.11,0.9,2.01,2.01,2.01c1.11,0,2.01-0.9,2.01-2.01
			C628.97,241.05,628.07,240.15,626.96,240.15z"/>
		<path class="st0" d="M638.52,240.15c-1.11,0-2.01,0.9-2.01,2.01c0,1.11,0.9,2.01,2.01,2.01c1.11,0,2.01-0.9,2.01-2.01
			C640.53,241.05,639.63,240.15,638.52,240.15z"/>
		<path class="st0" d="M650.08,240.15c-1.11,0-2.01,0.9-2.01,2.01c0,1.11,0.9,2.01,2.01,2.01c1.11,0,2.01-0.9,2.01-2.01
			C652.09,241.05,651.19,240.15,650.08,240.15z"/>
		<path class="st0" d="M609.46,248.84c-1.11,0-2.01,0.9-2.01,2.01s0.9,2.01,2.01,2.01c1.11,0,2.01-0.9,2.01-2.01
			S610.57,248.84,609.46,248.84z"/>
		<path class="st0" d="M621.02,248.84c-1.11,0-2.01,0.9-2.01,2.01s0.9,2.01,2.01,2.01c1.11,0,2.01-0.9,2.01-2.01
			S622.13,248.84,621.02,248.84z"/>
		<path class="st0" d="M632.58,248.84c-1.11,0-2.01,0.9-2.01,2.01s0.9,2.01,2.01,2.01c1.11,0,2.01-0.9,2.01-2.01
			S633.69,248.84,632.58,248.84z"/>
		<path class="st0" d="M644.14,248.84c-1.11,0-2.01,0.9-2.01,2.01s0.9,2.01,2.01,2.01c1.11,0,2.01-0.9,2.01-2.01
			S645.25,248.84,644.14,248.84z"/>
		<path class="st0" d="M655.7,248.84c-1.11,0-2.01,0.9-2.01,2.01s0.9,2.01,2.01,2.01c1.11,0,2.01-0.9,2.01-2.01
			S656.81,248.84,655.7,248.84z"/>
	</g>
	<g>
		<path class="st0" d="M289.68,341.43c-1.11,0-2.01,0.9-2.01,2.01c0,1.11,0.9,2.01,2.01,2.01c1.11,0,2.01-0.9,2.01-2.01
			C291.69,342.33,290.79,341.43,289.68,341.43z"/>
		<path class="st0" d="M301.24,341.43c-1.11,0-2.01,0.9-2.01,2.01c0,1.11,0.9,2.01,2.01,2.01c1.11,0,2.01-0.9,2.01-2.01
			C303.24,342.33,302.35,341.43,301.24,341.43z"/>
		<path class="st0" d="M312.8,341.43c-1.11,0-2.01,0.9-2.01,2.01c0,1.11,0.9,2.01,2.01,2.01c1.11,0,2.01-0.9,2.01-2.01
			C314.8,342.33,313.91,341.43,312.8,341.43z"/>
		<path class="st0" d="M324.36,341.43c-1.11,0-2.01,0.9-2.01,2.01c0,1.11,0.9,2.01,2.01,2.01c1.11,0,2.01-0.9,2.01-2.01
			C326.36,342.33,325.47,341.43,324.36,341.43z"/>
		<path class="st0" d="M335.92,341.43c-1.11,0-2.01,0.9-2.01,2.01c0,1.11,0.9,2.01,2.01,2.01c1.11,0,2.01-0.9,2.01-2.01
			C337.92,342.33,337.02,341.43,335.92,341.43z"/>
		<path class="st0" d="M295.3,350.12c-1.11,0-2.01,0.9-2.01,2.01c0,1.11,0.9,2.01,2.01,2.01c1.11,0,2.01-0.9,2.01-2.01
			C297.31,351.02,296.41,350.12,295.3,350.12z"/>
		<path class="st0" d="M306.86,350.12c-1.11,0-2.01,0.9-2.01,2.01c0,1.11,0.9,2.01,2.01,2.01c1.11,0,2.01-0.9,2.01-2.01
			C308.87,351.02,307.97,350.12,306.86,350.12z"/>
		<path class="st0" d="M318.42,350.12c-1.11,0-2.01,0.9-2.01,2.01c0,1.11,0.9,2.01,2.01,2.01c1.11,0,2.01-0.9,2.01-2.01
			C320.43,351.02,319.53,350.12,318.42,350.12z"/>
		<path class="st0" d="M329.98,350.12c-1.11,0-2.01,0.9-2.01,2.01c0,1.11,0.9,2.01,2.01,2.01c1.11,0,2.01-0.9,2.01-2.01
			C331.99,351.02,331.09,350.12,329.98,350.12z"/>
		<path class="st0" d="M341.54,350.12c-1.11,0-2.01,0.9-2.01,2.01c0,1.11,0.9,2.01,2.01,2.01c1.11,0,2.01-0.9,2.01-2.01
			C343.55,351.02,342.65,350.12,341.54,350.12z"/>
		<path class="st0" d="M289.68,359.83c-1.11,0-2.01,0.9-2.01,2.01c0,1.11,0.9,2.01,2.01,2.01c1.11,0,2.01-0.9,2.01-2.01
			C291.69,360.73,290.79,359.83,289.68,359.83z"/>
		<path class="st0" d="M301.24,359.83c-1.11,0-2.01,0.9-2.01,2.01c0,1.11,0.9,2.01,2.01,2.01c1.11,0,2.01-0.9,2.01-2.01
			C303.24,360.73,302.35,359.83,301.24,359.83z"/>
		<path class="st0" d="M312.8,359.83c-1.11,0-2.01,0.9-2.01,2.01c0,1.11,0.9,2.01,2.01,2.01c1.11,0,2.01-0.9,2.01-2.01
			C314.8,360.73,313.91,359.83,312.8,359.83z"/>
		<path class="st0" d="M324.36,359.83c-1.11,0-2.01,0.9-2.01,2.01c0,1.11,0.9,2.01,2.01,2.01c1.11,0,2.01-0.9,2.01-2.01
			C326.36,360.73,325.47,359.83,324.36,359.83z"/>
		<path class="st0" d="M335.92,359.83c-1.11,0-2.01,0.9-2.01,2.01c0,1.11,0.9,2.01,2.01,2.01c1.11,0,2.01-0.9,2.01-2.01
			C337.92,360.73,337.02,359.83,335.92,359.83z"/>
		<path class="st0" d="M295.3,368.52c-1.11,0-2.01,0.9-2.01,2.01c0,1.11,0.9,2.01,2.01,2.01c1.11,0,2.01-0.9,2.01-2.01
			C297.31,369.42,296.41,368.52,295.3,368.52z"/>
		<path class="st0" d="M306.86,368.52c-1.11,0-2.01,0.9-2.01,2.01c0,1.11,0.9,2.01,2.01,2.01c1.11,0,2.01-0.9,2.01-2.01
			C308.87,369.42,307.97,368.52,306.86,368.52z"/>
		<path class="st0" d="M318.42,368.52c-1.11,0-2.01,0.9-2.01,2.01c0,1.11,0.9,2.01,2.01,2.01c1.11,0,2.01-0.9,2.01-2.01
			C320.43,369.42,319.53,368.52,318.42,368.52z"/>
		<path class="st0" d="M329.98,368.52c-1.11,0-2.01,0.9-2.01,2.01c0,1.11,0.9,2.01,2.01,2.01c1.11,0,2.01-0.9,2.01-2.01
			C331.99,369.42,331.09,368.52,329.98,368.52z"/>
		<path class="st0" d="M341.54,368.52c-1.11,0-2.01,0.9-2.01,2.01c0,1.11,0.9,2.01,2.01,2.01c1.11,0,2.01-0.9,2.01-2.01
			C343.55,369.42,342.65,368.52,341.54,368.52z"/>
		<path class="st0" d="M289.68,378.23c-1.11,0-2.01,0.9-2.01,2.01c0,1.11,0.9,2.01,2.01,2.01c1.11,0,2.01-0.9,2.01-2.01
			C291.69,379.13,290.79,378.23,289.68,378.23z"/>
		<path class="st0" d="M301.24,378.23c-1.11,0-2.01,0.9-2.01,2.01c0,1.11,0.9,2.01,2.01,2.01c1.11,0,2.01-0.9,2.01-2.01
			C303.24,379.13,302.35,378.23,301.24,378.23z"/>
		<path class="st0" d="M312.8,378.23c-1.11,0-2.01,0.9-2.01,2.01c0,1.11,0.9,2.01,2.01,2.01c1.11,0,2.01-0.9,2.01-2.01
			C314.8,379.13,313.91,378.23,312.8,378.23z"/>
		<path class="st0" d="M324.36,378.23c-1.11,0-2.01,0.9-2.01,2.01c0,1.11,0.9,2.01,2.01,2.01c1.11,0,2.01-0.9,2.01-2.01
			C326.36,379.13,325.47,378.23,324.36,378.23z"/>
		<path class="st0" d="M335.92,378.23c-1.11,0-2.01,0.9-2.01,2.01c0,1.11,0.9,2.01,2.01,2.01c1.11,0,2.01-0.9,2.01-2.01
			C337.92,379.13,337.02,378.23,335.92,378.23z"/>
		<path class="st0" d="M295.3,386.92c-1.11,0-2.01,0.9-2.01,2.01s0.9,2.01,2.01,2.01c1.11,0,2.01-0.9,2.01-2.01
			S296.41,386.92,295.3,386.92z"/>
		<path class="st0" d="M306.86,386.92c-1.11,0-2.01,0.9-2.01,2.01s0.9,2.01,2.01,2.01c1.11,0,2.01-0.9,2.01-2.01
			S307.97,386.92,306.86,386.92z"/>
		<path class="st0" d="M318.42,386.92c-1.11,0-2.01,0.9-2.01,2.01s0.9,2.01,2.01,2.01c1.11,0,2.01-0.9,2.01-2.01
			S319.53,386.92,318.42,386.92z"/>
		<path class="st0" d="M329.98,386.92c-1.11,0-2.01,0.9-2.01,2.01s0.9,2.01,2.01,2.01c1.11,0,2.01-0.9,2.01-2.01
			S331.09,386.92,329.98,386.92z"/>
		<path class="st0" d="M341.54,386.92c-1.11,0-2.01,0.9-2.01,2.01s0.9,2.01,2.01,2.01c1.11,0,2.01-0.9,2.01-2.01
			S342.65,386.92,341.54,386.92z"/>
	</g>
	<g>
		<path class="st0" d="M53.39,313.95c-1.11,0-2.01,0.9-2.01,2.01c0,1.11,0.9,2.01,2.01,2.01c1.11,0,2.01-0.9,2.01-2.01
			C55.39,314.85,54.49,313.95,53.39,313.95z"/>
		<path class="st0" d="M64.95,313.95c-1.11,0-2.01,0.9-2.01,2.01c0,1.11,0.9,2.01,2.01,2.01c1.11,0,2.01-0.9,2.01-2.01
			C66.95,314.85,66.05,313.95,64.95,313.95z"/>
		<path class="st0" d="M76.5,313.95c-1.11,0-2.01,0.9-2.01,2.01c0,1.11,0.9,2.01,2.01,2.01c1.11,0,2.01-0.9,2.01-2.01
			C78.51,314.85,77.61,313.95,76.5,313.95z"/>
		<path class="st0" d="M88.06,313.95c-1.11,0-2.01,0.9-2.01,2.01c0,1.11,0.9,2.01,2.01,2.01c1.11,0,2.01-0.9,2.01-2.01
			C90.07,314.85,89.17,313.95,88.06,313.95z"/>
		<path class="st0" d="M99.62,313.95c-1.11,0-2.01,0.9-2.01,2.01c0,1.11,0.9,2.01,2.01,2.01c1.11,0,2.01-0.9,2.01-2.01
			C101.63,314.85,100.73,313.95,99.62,313.95z"/>
		<path class="st0" d="M59.01,322.64c-1.11,0-2.01,0.9-2.01,2.01c0,1.11,0.9,2.01,2.01,2.01c1.11,0,2.01-0.9,2.01-2.01
			C61.01,323.54,60.12,322.64,59.01,322.64z"/>
		<path class="st0" d="M70.57,322.64c-1.11,0-2.01,0.9-2.01,2.01c0,1.11,0.9,2.01,2.01,2.01c1.11,0,2.01-0.9,2.01-2.01
			C72.57,323.54,71.68,322.64,70.57,322.64z"/>
		<path class="st0" d="M82.13,322.64c-1.11,0-2.01,0.9-2.01,2.01c0,1.11,0.9,2.01,2.01,2.01c1.11,0,2.01-0.9,2.01-2.01
			C84.13,323.54,83.24,322.64,82.13,322.64z"/>
		<path class="st0" d="M93.69,322.64c-1.11,0-2.01,0.9-2.01,2.01c0,1.11,0.9,2.01,2.01,2.01c1.11,0,2.01-0.9,2.01-2.01
			C95.69,323.54,94.79,322.64,93.69,322.64z"/>
		<path class="st0" d="M105.25,322.64c-1.11,0-2.01,0.9-2.01,2.01c0,1.11,0.9,2.01,2.01,2.01c1.11,0,2.01-0.9,2.01-2.01
			C107.25,323.54,106.35,322.64,105.25,322.64z"/>
		<path class="st0" d="M53.39,332.35c-1.11,0-2.01,0.9-2.01,2.01c0,1.11,0.9,2.01,2.01,2.01c1.11,0,2.01-0.9,2.01-2.01
			C55.39,333.25,54.49,332.35,53.39,332.35z"/>
		<path class="st0" d="M64.95,332.35c-1.11,0-2.01,0.9-2.01,2.01c0,1.11,0.9,2.01,2.01,2.01c1.11,0,2.01-0.9,2.01-2.01
			C66.95,333.25,66.05,332.35,64.95,332.35z"/>
		<path class="st0" d="M76.5,332.35c-1.11,0-2.01,0.9-2.01,2.01c0,1.11,0.9,2.01,2.01,2.01c1.11,0,2.01-0.9,2.01-2.01
			C78.51,333.25,77.61,332.35,76.5,332.35z"/>
		<path class="st0" d="M88.06,332.35c-1.11,0-2.01,0.9-2.01,2.01c0,1.11,0.9,2.01,2.01,2.01c1.11,0,2.01-0.9,2.01-2.01
			C90.07,333.25,89.17,332.35,88.06,332.35z"/>
		<path class="st0" d="M99.62,332.35c-1.11,0-2.01,0.9-2.01,2.01c0,1.11,0.9,2.01,2.01,2.01c1.11,0,2.01-0.9,2.01-2.01
			C101.63,333.25,100.73,332.35,99.62,332.35z"/>
		<path class="st0" d="M59.01,341.04c-1.11,0-2.01,0.9-2.01,2.01c0,1.11,0.9,2.01,2.01,2.01c1.11,0,2.01-0.9,2.01-2.01
			C61.01,341.94,60.12,341.04,59.01,341.04z"/>
		<path class="st0" d="M70.57,341.04c-1.11,0-2.01,0.9-2.01,2.01c0,1.11,0.9,2.01,2.01,2.01c1.11,0,2.01-0.9,2.01-2.01
			C72.57,341.94,71.68,341.04,70.57,341.04z"/>
		<path class="st0" d="M82.13,341.04c-1.11,0-2.01,0.9-2.01,2.01c0,1.11,0.9,2.01,2.01,2.01c1.11,0,2.01-0.9,2.01-2.01
			C84.13,341.94,83.24,341.04,82.13,341.04z"/>
		<path class="st0" d="M93.69,341.04c-1.11,0-2.01,0.9-2.01,2.01c0,1.11,0.9,2.01,2.01,2.01c1.11,0,2.01-0.9,2.01-2.01
			C95.69,341.94,94.79,341.04,93.69,341.04z"/>
		<path class="st0" d="M105.25,341.04c-1.11,0-2.01,0.9-2.01,2.01c0,1.11,0.9,2.01,2.01,2.01c1.11,0,2.01-0.9,2.01-2.01
			C107.25,341.94,106.35,341.04,105.25,341.04z"/>
		<path class="st0" d="M53.39,350.75c-1.11,0-2.01,0.9-2.01,2.01c0,1.11,0.9,2.01,2.01,2.01c1.11,0,2.01-0.9,2.01-2.01
			C55.39,351.65,54.49,350.75,53.39,350.75z"/>
		<path class="st0" d="M64.95,350.75c-1.11,0-2.01,0.9-2.01,2.01c0,1.11,0.9,2.01,2.01,2.01c1.11,0,2.01-0.9,2.01-2.01
			C66.95,351.65,66.05,350.75,64.95,350.75z"/>
		<path class="st0" d="M76.5,350.75c-1.11,0-2.01,0.9-2.01,2.01c0,1.11,0.9,2.01,2.01,2.01c1.11,0,2.01-0.9,2.01-2.01
			C78.51,351.65,77.61,350.75,76.5,350.75z"/>
		<path class="st0" d="M88.06,350.75c-1.11,0-2.01,0.9-2.01,2.01c0,1.11,0.9,2.01,2.01,2.01c1.11,0,2.01-0.9,2.01-2.01
			C90.07,351.65,89.17,350.75,88.06,350.75z"/>
		<path class="st0" d="M99.62,350.75c-1.11,0-2.01,0.9-2.01,2.01c0,1.11,0.9,2.01,2.01,2.01c1.11,0,2.01-0.9,2.01-2.01
			C101.63,351.65,100.73,350.75,99.62,350.75z"/>
		<path class="st0" d="M59.01,359.44c-1.11,0-2.01,0.9-2.01,2.01c0,1.11,0.9,2.01,2.01,2.01c1.11,0,2.01-0.9,2.01-2.01
			C61.01,360.34,60.12,359.44,59.01,359.44z"/>
		<path class="st0" d="M70.57,359.44c-1.11,0-2.01,0.9-2.01,2.01c0,1.11,0.9,2.01,2.01,2.01c1.11,0,2.01-0.9,2.01-2.01
			C72.57,360.34,71.68,359.44,70.57,359.44z"/>
		<path class="st0" d="M82.13,359.44c-1.11,0-2.01,0.9-2.01,2.01c0,1.11,0.9,2.01,2.01,2.01c1.11,0,2.01-0.9,2.01-2.01
			C84.13,360.34,83.24,359.44,82.13,359.44z"/>
		<path class="st0" d="M93.69,359.44c-1.11,0-2.01,0.9-2.01,2.01c0,1.11,0.9,2.01,2.01,2.01c1.11,0,2.01-0.9,2.01-2.01
			C95.69,360.34,94.79,359.44,93.69,359.44z"/>
		<path class="st0" d="M105.25,359.44c-1.11,0-2.01,0.9-2.01,2.01c0,1.11,0.9,2.01,2.01,2.01c1.11,0,2.01-0.9,2.01-2.01
			C107.25,360.34,106.35,359.44,105.25,359.44z"/>
	</g>
	<g>
		<path class="st0" d="M27.43,33.45c-1.11,0-2.01,0.9-2.01,2.01c0,1.11,0.9,2.01,2.01,2.01c1.11,0,2.01-0.9,2.01-2.01
			C29.44,34.35,28.54,33.45,27.43,33.45z"/>
		<path class="st0" d="M38.99,33.45c-1.11,0-2.01,0.9-2.01,2.01c0,1.11,0.9,2.01,2.01,2.01c1.11,0,2.01-0.9,2.01-2.01
			C41,34.35,40.1,33.45,38.99,33.45z"/>
		<path class="st0" d="M50.55,33.45c-1.11,0-2.01,0.9-2.01,2.01c0,1.11,0.9,2.01,2.01,2.01c1.11,0,2.01-0.9,2.01-2.01
			C52.56,34.35,51.66,33.45,50.55,33.45z"/>
		<path class="st0" d="M62.11,33.45c-1.11,0-2.01,0.9-2.01,2.01c0,1.11,0.9,2.01,2.01,2.01c1.11,0,2.01-0.9,2.01-2.01
			C64.12,34.35,63.22,33.45,62.11,33.45z"/>
		<path class="st0" d="M73.67,33.45c-1.11,0-2.01,0.9-2.01,2.01c0,1.11,0.9,2.01,2.01,2.01c1.11,0,2.01-0.9,2.01-2.01
			C75.68,34.35,74.78,33.45,73.67,33.45z"/>
		<path class="st0" d="M33.05,42.14c-1.11,0-2.01,0.9-2.01,2.01c0,1.11,0.9,2.01,2.01,2.01c1.11,0,2.01-0.9,2.01-2.01
			C35.06,43.04,34.16,42.14,33.05,42.14z"/>
		<path class="st0" d="M44.61,42.14c-1.11,0-2.01,0.9-2.01,2.01c0,1.11,0.9,2.01,2.01,2.01c1.11,0,2.01-0.9,2.01-2.01
			C46.62,43.04,45.72,42.14,44.61,42.14z"/>
		<path class="st0" d="M56.17,42.14c-1.11,0-2.01,0.9-2.01,2.01c0,1.11,0.9,2.01,2.01,2.01c1.11,0,2.01-0.9,2.01-2.01
			C58.18,43.04,57.28,42.14,56.17,42.14z"/>
		<path class="st0" d="M67.73,42.14c-1.11,0-2.01,0.9-2.01,2.01c0,1.11,0.9,2.01,2.01,2.01c1.11,0,2.01-0.9,2.01-2.01
			C69.74,43.04,68.84,42.14,67.73,42.14z"/>
		<path class="st0" d="M79.29,42.14c-1.11,0-2.01,0.9-2.01,2.01c0,1.11,0.9,2.01,2.01,2.01c1.11,0,2.01-0.9,2.01-2.01
			C81.3,43.04,80.4,42.14,79.29,42.14z"/>
		<path class="st0" d="M27.43,51.85c-1.11,0-2.01,0.9-2.01,2.01c0,1.11,0.9,2.01,2.01,2.01c1.11,0,2.01-0.9,2.01-2.01
			C29.44,52.75,28.54,51.85,27.43,51.85z"/>
		<path class="st0" d="M38.99,51.85c-1.11,0-2.01,0.9-2.01,2.01c0,1.11,0.9,2.01,2.01,2.01c1.11,0,2.01-0.9,2.01-2.01
			C41,52.75,40.1,51.85,38.99,51.85z"/>
		<path class="st0" d="M50.55,51.85c-1.11,0-2.01,0.9-2.01,2.01c0,1.11,0.9,2.01,2.01,2.01c1.11,0,2.01-0.9,2.01-2.01
			C52.56,52.75,51.66,51.85,50.55,51.85z"/>
		<path class="st0" d="M62.11,51.85c-1.11,0-2.01,0.9-2.01,2.01c0,1.11,0.9,2.01,2.01,2.01c1.11,0,2.01-0.9,2.01-2.01
			C64.12,52.75,63.22,51.85,62.11,51.85z"/>
		<path class="st0" d="M73.67,51.85c-1.11,0-2.01,0.9-2.01,2.01c0,1.11,0.9,2.01,2.01,2.01c1.11,0,2.01-0.9,2.01-2.01
			C75.68,52.75,74.78,51.85,73.67,51.85z"/>
		<path class="st0" d="M33.05,60.54c-1.11,0-2.01,0.9-2.01,2.01c0,1.11,0.9,2.01,2.01,2.01c1.11,0,2.01-0.9,2.01-2.01
			C35.06,61.44,34.16,60.54,33.05,60.54z"/>
		<path class="st0" d="M44.61,60.54c-1.11,0-2.01,0.9-2.01,2.01c0,1.11,0.9,2.01,2.01,2.01c1.11,0,2.01-0.9,2.01-2.01
			C46.62,61.44,45.72,60.54,44.61,60.54z"/>
		<path class="st0" d="M56.17,60.54c-1.11,0-2.01,0.9-2.01,2.01c0,1.11,0.9,2.01,2.01,2.01c1.11,0,2.01-0.9,2.01-2.01
			C58.18,61.44,57.28,60.54,56.17,60.54z"/>
		<path class="st0" d="M67.73,60.54c-1.11,0-2.01,0.9-2.01,2.01c0,1.11,0.9,2.01,2.01,2.01c1.11,0,2.01-0.9,2.01-2.01
			C69.74,61.44,68.84,60.54,67.73,60.54z"/>
		<path class="st0" d="M79.29,60.54c-1.11,0-2.01,0.9-2.01,2.01c0,1.11,0.9,2.01,2.01,2.01c1.11,0,2.01-0.9,2.01-2.01
			C81.3,61.44,80.4,60.54,79.29,60.54z"/>
		<path class="st0" d="M27.43,70.25c-1.11,0-2.01,0.9-2.01,2.01c0,1.11,0.9,2.01,2.01,2.01c1.11,0,2.01-0.9,2.01-2.01
			C29.44,71.15,28.54,70.25,27.43,70.25z"/>
		<path class="st0" d="M38.99,70.25c-1.11,0-2.01,0.9-2.01,2.01c0,1.11,0.9,2.01,2.01,2.01c1.11,0,2.01-0.9,2.01-2.01
			C41,71.15,40.1,70.25,38.99,70.25z"/>
		<path class="st0" d="M50.55,70.25c-1.11,0-2.01,0.9-2.01,2.01c0,1.11,0.9,2.01,2.01,2.01c1.11,0,2.01-0.9,2.01-2.01
			C52.56,71.15,51.66,70.25,50.55,70.25z"/>
		<path class="st0" d="M62.11,70.25c-1.11,0-2.01,0.9-2.01,2.01c0,1.11,0.9,2.01,2.01,2.01c1.11,0,2.01-0.9,2.01-2.01
			C64.12,71.15,63.22,70.25,62.11,70.25z"/>
		<path class="st0" d="M73.67,70.25c-1.11,0-2.01,0.9-2.01,2.01c0,1.11,0.9,2.01,2.01,2.01c1.11,0,2.01-0.9,2.01-2.01
			C75.68,71.15,74.78,70.25,73.67,70.25z"/>
		<path class="st0" d="M33.05,78.94c-1.11,0-2.01,0.9-2.01,2.01c0,1.11,0.9,2.01,2.01,2.01c1.11,0,2.01-0.9,2.01-2.01
			C35.06,79.84,34.16,78.94,33.05,78.94z"/>
		<path class="st0" d="M44.61,78.94c-1.11,0-2.01,0.9-2.01,2.01c0,1.11,0.9,2.01,2.01,2.01c1.11,0,2.01-0.9,2.01-2.01
			C46.62,79.84,45.72,78.94,44.61,78.94z"/>
		<path class="st0" d="M56.17,78.94c-1.11,0-2.01,0.9-2.01,2.01c0,1.11,0.9,2.01,2.01,2.01c1.11,0,2.01-0.9,2.01-2.01
			C58.18,79.84,57.28,78.94,56.17,78.94z"/>
		<path class="st0" d="M67.73,78.94c-1.11,0-2.01,0.9-2.01,2.01c0,1.11,0.9,2.01,2.01,2.01c1.11,0,2.01-0.9,2.01-2.01
			C69.74,79.84,68.84,78.94,67.73,78.94z"/>
		<path class="st0" d="M79.29,78.94c-1.11,0-2.01,0.9-2.01,2.01c0,1.11,0.9,2.01,2.01,2.01c1.11,0,2.01-0.9,2.01-2.01
			C81.3,79.84,80.4,78.94,79.29,78.94z"/>
	</g>
	<g>
		<path class="st0" d="M458.12,384.66c-1.11,0-2.01,0.9-2.01,2.01c0,1.11,0.9,2.01,2.01,2.01c1.11,0,2.01-0.9,2.01-2.01
			C460.13,385.56,459.23,384.66,458.12,384.66z"/>
		<path class="st0" d="M469.68,384.66c-1.11,0-2.01,0.9-2.01,2.01c0,1.11,0.9,2.01,2.01,2.01c1.11,0,2.01-0.9,2.01-2.01
			C471.69,385.56,470.79,384.66,469.68,384.66z"/>
		<path class="st0" d="M481.24,384.66c-1.11,0-2.01,0.9-2.01,2.01c0,1.11,0.9,2.01,2.01,2.01s2.01-0.9,2.01-2.01
			C483.25,385.56,482.35,384.66,481.24,384.66z"/>
		<path class="st0" d="M492.8,384.66c-1.11,0-2.01,0.9-2.01,2.01c0,1.11,0.9,2.01,2.01,2.01c1.11,0,2.01-0.9,2.01-2.01
			C494.81,385.56,493.91,384.66,492.8,384.66z"/>
		<path class="st0" d="M504.36,384.66c-1.11,0-2.01,0.9-2.01,2.01c0,1.11,0.9,2.01,2.01,2.01c1.11,0,2.01-0.9,2.01-2.01
			C506.37,385.56,505.47,384.66,504.36,384.66z"/>
		<path class="st0" d="M463.75,393.35c-1.11,0-2.01,0.9-2.01,2.01c0,1.11,0.9,2.01,2.01,2.01c1.11,0,2.01-0.9,2.01-2.01
			C465.75,394.25,464.85,393.35,463.75,393.35z"/>
		<path class="st0" d="M475.3,393.35c-1.11,0-2.01,0.9-2.01,2.01c0,1.11,0.9,2.01,2.01,2.01c1.11,0,2.01-0.9,2.01-2.01
			C477.31,394.25,476.41,393.35,475.3,393.35z"/>
		<path class="st0" d="M486.86,393.35c-1.11,0-2.01,0.9-2.01,2.01c0,1.11,0.9,2.01,2.01,2.01c1.11,0,2.01-0.9,2.01-2.01
			C488.87,394.25,487.97,393.35,486.86,393.35z"/>
		<path class="st0" d="M498.42,393.35c-1.11,0-2.01,0.9-2.01,2.01c0,1.11,0.9,2.01,2.01,2.01c1.11,0,2.01-0.9,2.01-2.01
			C500.43,394.25,499.53,393.35,498.42,393.35z"/>
		<path class="st0" d="M509.98,393.35c-1.11,0-2.01,0.9-2.01,2.01c0,1.11,0.9,2.01,2.01,2.01s2.01-0.9,2.01-2.01
			C511.99,394.25,511.09,393.35,509.98,393.35z"/>
		<path class="st0" d="M458.12,403.06c-1.11,0-2.01,0.9-2.01,2.01c0,1.11,0.9,2.01,2.01,2.01c1.11,0,2.01-0.9,2.01-2.01
			C460.13,403.96,459.23,403.06,458.12,403.06z"/>
		<path class="st0" d="M469.68,403.06c-1.11,0-2.01,0.9-2.01,2.01c0,1.11,0.9,2.01,2.01,2.01c1.11,0,2.01-0.9,2.01-2.01
			C471.69,403.96,470.79,403.06,469.68,403.06z"/>
		<path class="st0" d="M481.24,403.06c-1.11,0-2.01,0.9-2.01,2.01c0,1.11,0.9,2.01,2.01,2.01s2.01-0.9,2.01-2.01
			C483.25,403.96,482.35,403.06,481.24,403.06z"/>
		<path class="st0" d="M492.8,403.06c-1.11,0-2.01,0.9-2.01,2.01c0,1.11,0.9,2.01,2.01,2.01c1.11,0,2.01-0.9,2.01-2.01
			C494.81,403.96,493.91,403.06,492.8,403.06z"/>
		<path class="st0" d="M504.36,403.06c-1.11,0-2.01,0.9-2.01,2.01c0,1.11,0.9,2.01,2.01,2.01c1.11,0,2.01-0.9,2.01-2.01
			C506.37,403.96,505.47,403.06,504.36,403.06z"/>
		<path class="st0" d="M463.75,411.75c-1.11,0-2.01,0.9-2.01,2.01c0,1.11,0.9,2.01,2.01,2.01c1.11,0,2.01-0.9,2.01-2.01
			C465.75,412.65,464.85,411.75,463.75,411.75z"/>
		<path class="st0" d="M475.3,411.75c-1.11,0-2.01,0.9-2.01,2.01c0,1.11,0.9,2.01,2.01,2.01c1.11,0,2.01-0.9,2.01-2.01
			C477.31,412.65,476.41,411.75,475.3,411.75z"/>
		<path class="st0" d="M486.86,411.75c-1.11,0-2.01,0.9-2.01,2.01c0,1.11,0.9,2.01,2.01,2.01c1.11,0,2.01-0.9,2.01-2.01
			C488.87,412.65,487.97,411.75,486.86,411.75z"/>
		<path class="st0" d="M498.42,411.75c-1.11,0-2.01,0.9-2.01,2.01c0,1.11,0.9,2.01,2.01,2.01c1.11,0,2.01-0.9,2.01-2.01
			C500.43,412.65,499.53,411.75,498.42,411.75z"/>
		<path class="st0" d="M509.98,411.75c-1.11,0-2.01,0.9-2.01,2.01c0,1.11,0.9,2.01,2.01,2.01s2.01-0.9,2.01-2.01
			C511.99,412.65,511.09,411.75,509.98,411.75z"/>
		<path class="st0" d="M458.12,421.46c-1.11,0-2.01,0.9-2.01,2.01c0,1.11,0.9,2.01,2.01,2.01c1.11,0,2.01-0.9,2.01-2.01
			C460.13,422.36,459.23,421.46,458.12,421.46z"/>
		<path class="st0" d="M469.68,421.46c-1.11,0-2.01,0.9-2.01,2.01c0,1.11,0.9,2.01,2.01,2.01c1.11,0,2.01-0.9,2.01-2.01
			C471.69,422.36,470.79,421.46,469.68,421.46z"/>
		<path class="st0" d="M481.24,421.46c-1.11,0-2.01,0.9-2.01,2.01c0,1.11,0.9,2.01,2.01,2.01s2.01-0.9,2.01-2.01
			C483.25,422.36,482.35,421.46,481.24,421.46z"/>
		<path class="st0" d="M492.8,421.46c-1.11,0-2.01,0.9-2.01,2.01c0,1.11,0.9,2.01,2.01,2.01c1.11,0,2.01-0.9,2.01-2.01
			C494.81,422.36,493.91,421.46,492.8,421.46z"/>
		<path class="st0" d="M504.36,421.46c-1.11,0-2.01,0.9-2.01,2.01c0,1.11,0.9,2.01,2.01,2.01c1.11,0,2.01-0.9,2.01-2.01
			C506.37,422.36,505.47,421.46,504.36,421.46z"/>
		<path class="st0" d="M463.75,430.15c-1.11,0-2.01,0.9-2.01,2.01c0,1.11,0.9,2.01,2.01,2.01c1.11,0,2.01-0.9,2.01-2.01
			C465.75,431.05,464.85,430.15,463.75,430.15z"/>
		<path class="st0" d="M475.3,430.15c-1.11,0-2.01,0.9-2.01,2.01c0,1.11,0.9,2.01,2.01,2.01c1.11,0,2.01-0.9,2.01-2.01
			C477.31,431.05,476.41,430.15,475.3,430.15z"/>
		<path class="st0" d="M486.86,430.15c-1.11,0-2.01,0.9-2.01,2.01c0,1.11,0.9,2.01,2.01,2.01c1.11,0,2.01-0.9,2.01-2.01
			C488.87,431.05,487.97,430.15,486.86,430.15z"/>
		<path class="st0" d="M498.42,430.15c-1.11,0-2.01,0.9-2.01,2.01c0,1.11,0.9,2.01,2.01,2.01c1.11,0,2.01-0.9,2.01-2.01
			C500.43,431.05,499.53,430.15,498.42,430.15z"/>
		<path class="st0" d="M509.98,430.15c-1.11,0-2.01,0.9-2.01,2.01c0,1.11,0.9,2.01,2.01,2.01s2.01-0.9,2.01-2.01
			C511.99,431.05,511.09,430.15,509.98,430.15z"/>
	</g>
	<g>
		<path class="st0" d="M673.17,371.56c-1.11,0-2.01,0.9-2.01,2.01c0,1.11,0.9,2.01,2.01,2.01c1.11,0,2.01-0.9,2.01-2.01
			C675.18,372.46,674.28,371.56,673.17,371.56z"/>
		<path class="st0" d="M684.73,371.56c-1.11,0-2.01,0.9-2.01,2.01c0,1.11,0.9,2.01,2.01,2.01c1.11,0,2.01-0.9,2.01-2.01
			C686.74,372.46,685.84,371.56,684.73,371.56z"/>
		<path class="st0" d="M696.29,371.56c-1.11,0-2.01,0.9-2.01,2.01c0,1.11,0.9,2.01,2.01,2.01c1.11,0,2.01-0.9,2.01-2.01
			C698.3,372.46,697.4,371.56,696.29,371.56z"/>
		<path class="st0" d="M707.85,371.56c-1.11,0-2.01,0.9-2.01,2.01c0,1.11,0.9,2.01,2.01,2.01c1.11,0,2.01-0.9,2.01-2.01
			C709.86,372.46,708.96,371.56,707.85,371.56z"/>
		<path class="st0" d="M719.41,371.56c-1.11,0-2.01,0.9-2.01,2.01c0,1.11,0.9,2.01,2.01,2.01c1.11,0,2.01-0.9,2.01-2.01
			C721.42,372.46,720.52,371.56,719.41,371.56z"/>
		<path class="st0" d="M678.79,380.25c-1.11,0-2.01,0.9-2.01,2.01c0,1.11,0.9,2.01,2.01,2.01c1.11,0,2.01-0.9,2.01-2.01
			C680.8,381.15,679.9,380.25,678.79,380.25z"/>
		<path class="st0" d="M690.35,380.25c-1.11,0-2.01,0.9-2.01,2.01c0,1.11,0.9,2.01,2.01,2.01s2.01-0.9,2.01-2.01
			C692.36,381.15,691.46,380.25,690.35,380.25z"/>
		<path class="st0" d="M701.91,380.25c-1.11,0-2.01,0.9-2.01,2.01c0,1.11,0.9,2.01,2.01,2.01c1.11,0,2.01-0.9,2.01-2.01
			C703.92,381.15,703.02,380.25,701.91,380.25z"/>
		<path class="st0" d="M713.47,380.25c-1.11,0-2.01,0.9-2.01,2.01c0,1.11,0.9,2.01,2.01,2.01c1.11,0,2.01-0.9,2.01-2.01
			C715.48,381.15,714.58,380.25,713.47,380.25z"/>
		<path class="st0" d="M725.03,380.25c-1.11,0-2.01,0.9-2.01,2.01c0,1.11,0.9,2.01,2.01,2.01c1.11,0,2.01-0.9,2.01-2.01
			C727.04,381.15,726.14,380.25,725.03,380.25z"/>
		<path class="st0" d="M673.17,389.96c-1.11,0-2.01,0.9-2.01,2.01c0,1.11,0.9,2.01,2.01,2.01c1.11,0,2.01-0.9,2.01-2.01
			C675.18,390.86,674.28,389.96,673.17,389.96z"/>
		<path class="st0" d="M684.73,389.96c-1.11,0-2.01,0.9-2.01,2.01c0,1.11,0.9,2.01,2.01,2.01c1.11,0,2.01-0.9,2.01-2.01
			C686.74,390.86,685.84,389.96,684.73,389.96z"/>
		<path class="st0" d="M696.29,389.96c-1.11,0-2.01,0.9-2.01,2.01c0,1.11,0.9,2.01,2.01,2.01c1.11,0,2.01-0.9,2.01-2.01
			C698.3,390.86,697.4,389.96,696.29,389.96z"/>
		<path class="st0" d="M707.85,389.96c-1.11,0-2.01,0.9-2.01,2.01c0,1.11,0.9,2.01,2.01,2.01c1.11,0,2.01-0.9,2.01-2.01
			C709.86,390.86,708.96,389.96,707.85,389.96z"/>
		<path class="st0" d="M719.41,389.96c-1.11,0-2.01,0.9-2.01,2.01c0,1.11,0.9,2.01,2.01,2.01c1.11,0,2.01-0.9,2.01-2.01
			C721.42,390.86,720.52,389.96,719.41,389.96z"/>
		<path class="st0" d="M678.79,398.65c-1.11,0-2.01,0.9-2.01,2.01s0.9,2.01,2.01,2.01c1.11,0,2.01-0.9,2.01-2.01
			S679.9,398.65,678.79,398.65z"/>
		<path class="st0" d="M690.35,398.65c-1.11,0-2.01,0.9-2.01,2.01s0.9,2.01,2.01,2.01s2.01-0.9,2.01-2.01
			S691.46,398.65,690.35,398.65z"/>
		<path class="st0" d="M701.91,398.65c-1.11,0-2.01,0.9-2.01,2.01s0.9,2.01,2.01,2.01c1.11,0,2.01-0.9,2.01-2.01
			S703.02,398.65,701.91,398.65z"/>
		<path class="st0" d="M713.47,398.65c-1.11,0-2.01,0.9-2.01,2.01s0.9,2.01,2.01,2.01c1.11,0,2.01-0.9,2.01-2.01
			S714.58,398.65,713.47,398.65z"/>
		<path class="st0" d="M725.03,398.65c-1.11,0-2.01,0.9-2.01,2.01s0.9,2.01,2.01,2.01c1.11,0,2.01-0.9,2.01-2.01
			S726.14,398.65,725.03,398.65z"/>
		<path class="st0" d="M673.17,408.36c-1.11,0-2.01,0.9-2.01,2.01c0,1.11,0.9,2.01,2.01,2.01c1.11,0,2.01-0.9,2.01-2.01
			C675.18,409.26,674.28,408.36,673.17,408.36z"/>
		<path class="st0" d="M684.73,408.36c-1.11,0-2.01,0.9-2.01,2.01c0,1.11,0.9,2.01,2.01,2.01c1.11,0,2.01-0.9,2.01-2.01
			C686.74,409.26,685.84,408.36,684.73,408.36z"/>
		<path class="st0" d="M696.29,408.36c-1.11,0-2.01,0.9-2.01,2.01c0,1.11,0.9,2.01,2.01,2.01c1.11,0,2.01-0.9,2.01-2.01
			C698.3,409.26,697.4,408.36,696.29,408.36z"/>
		<path class="st0" d="M707.85,408.36c-1.11,0-2.01,0.9-2.01,2.01c0,1.11,0.9,2.01,2.01,2.01c1.11,0,2.01-0.9,2.01-2.01
			C709.86,409.26,708.96,408.36,707.85,408.36z"/>
		<path class="st0" d="M719.41,408.36c-1.11,0-2.01,0.9-2.01,2.01c0,1.11,0.9,2.01,2.01,2.01c1.11,0,2.01-0.9,2.01-2.01
			C721.42,409.26,720.52,408.36,719.41,408.36z"/>
		<path class="st0" d="M678.79,417.05c-1.11,0-2.01,0.9-2.01,2.01s0.9,2.01,2.01,2.01c1.11,0,2.01-0.9,2.01-2.01
			S679.9,417.05,678.79,417.05z"/>
		<path class="st0" d="M690.35,417.05c-1.11,0-2.01,0.9-2.01,2.01s0.9,2.01,2.01,2.01s2.01-0.9,2.01-2.01
			S691.46,417.05,690.35,417.05z"/>
		<path class="st0" d="M701.91,417.05c-1.11,0-2.01,0.9-2.01,2.01s0.9,2.01,2.01,2.01c1.11,0,2.01-0.9,2.01-2.01
			S703.02,417.05,701.91,417.05z"/>
		<path class="st0" d="M713.47,417.05c-1.11,0-2.01,0.9-2.01,2.01s0.9,2.01,2.01,2.01c1.11,0,2.01-0.9,2.01-2.01
			S714.58,417.05,713.47,417.05z"/>
		<path class="st0" d="M725.03,417.05c-1.11,0-2.01,0.9-2.01,2.01s0.9,2.01,2.01,2.01c1.11,0,2.01-0.9,2.01-2.01
			S726.14,417.05,725.03,417.05z"/>
	</g>
</g>
<g>
	<defs>
		<rect id="SVGID_1_" x="1.39" y="0.47" width="749.02" height="499.98"/>
	</defs>
	<clipPath id="SVGID_2_">
		<use xlink:href="#SVGID_1_"  style="overflow:visible;"/>
	</clipPath>
	<g class="st1">
		<g>
			<line class="st2" x1="322.95" y1="66.65" x2="359.66" y2="99.11"/>
			<line class="st2" x1="317.79" y1="72.49" x2="354.5" y2="104.95"/>
			<line class="st2" x1="312.62" y1="78.33" x2="349.33" y2="110.79"/>
			<line class="st2" x1="307.46" y1="84.17" x2="344.17" y2="116.63"/>
			<line class="st2" x1="302.3" y1="90.01" x2="339.01" y2="122.47"/>
			<line class="st2" x1="297.13" y1="95.85" x2="333.84" y2="128.31"/>
		</g>
		<g>
			<line class="st2" x1="36.16" y1="186.06" x2="72.87" y2="218.52"/>
			<line class="st2" x1="31" y1="191.9" x2="67.71" y2="224.36"/>
			<line class="st2" x1="25.83" y1="197.74" x2="62.54" y2="230.21"/>
			<line class="st2" x1="20.67" y1="203.58" x2="57.38" y2="236.05"/>
			<line class="st2" x1="15.5" y1="209.43" x2="52.21" y2="241.89"/>
			<line class="st2" x1="10.34" y1="215.27" x2="47.05" y2="247.73"/>
		</g>
		<g>
			<line class="st2" x1="257.65" y1="222.72" x2="294.36" y2="255.18"/>
			<line class="st2" x1="252.48" y1="228.56" x2="289.19" y2="261.02"/>
			<line class="st2" x1="247.32" y1="234.4" x2="284.03" y2="266.86"/>
			<line class="st2" x1="242.15" y1="240.24" x2="278.86" y2="272.7"/>
			<line class="st2" x1="236.99" y1="246.08" x2="273.7" y2="278.54"/>
			<line class="st2" x1="231.82" y1="251.92" x2="268.54" y2="284.38"/>
		</g>
		<g>
			<line class="st2" x1="213.97" y1="359.98" x2="250.68" y2="392.44"/>
			<line class="st2" x1="208.81" y1="365.82" x2="245.52" y2="398.28"/>
			<line class="st2" x1="203.64" y1="371.66" x2="240.35" y2="404.12"/>
			<line class="st2" x1="198.48" y1="377.5" x2="235.19" y2="409.96"/>
			<line class="st2" x1="193.32" y1="383.34" x2="230.03" y2="415.8"/>
			<line class="st2" x1="188.15" y1="389.18" x2="224.86" y2="421.64"/>
		</g>
		<g>
			<line class="st2" x1="77.49" y1="418.47" x2="114.2" y2="450.93"/>
			<line class="st2" x1="72.33" y1="424.31" x2="109.04" y2="456.77"/>
			<line class="st2" x1="67.16" y1="430.15" x2="103.87" y2="462.61"/>
			<line class="st2" x1="62" y1="435.99" x2="98.71" y2="468.45"/>
			<line class="st2" x1="56.84" y1="441.83" x2="93.55" y2="474.29"/>
			<line class="st2" x1="51.67" y1="447.67" x2="88.38" y2="480.13"/>
		</g>
		<g>
			<line class="st2" x1="429.22" y1="291.35" x2="465.93" y2="323.81"/>
			<line class="st2" x1="424.05" y1="297.19" x2="460.76" y2="329.65"/>
			<line class="st2" x1="418.89" y1="303.03" x2="455.6" y2="335.49"/>
			<line class="st2" x1="413.73" y1="308.87" x2="450.44" y2="341.33"/>
			<line class="st2" x1="408.56" y1="314.71" x2="445.27" y2="347.17"/>
			<line class="st2" x1="403.4" y1="320.55" x2="440.11" y2="353.01"/>
		</g>
		<g>
			<line class="st2" x1="488.49" y1="83.9" x2="525.2" y2="116.36"/>
			<line class="st2" x1="483.33" y1="89.74" x2="520.04" y2="122.2"/>
			<line class="st2" x1="478.16" y1="95.58" x2="514.87" y2="128.04"/>
			<line class="st2" x1="473" y1="101.42" x2="509.71" y2="133.88"/>
			<line class="st2" x1="467.83" y1="107.26" x2="504.54" y2="139.72"/>
			<line class="st2" x1="462.67" y1="113.1" x2="499.38" y2="145.56"/>
		</g>
		<g>
			<line class="st2" x1="603.13" y1="314.74" x2="639.84" y2="347.21"/>
			<line class="st2" x1="597.97" y1="320.58" x2="634.68" y2="353.05"/>
			<line class="st2" x1="592.8" y1="326.42" x2="629.51" y2="358.89"/>
			<line class="st2" x1="587.64" y1="332.26" x2="624.35" y2="364.73"/>
			<line class="st2" x1="582.48" y1="338.11" x2="619.19" y2="370.57"/>
			<line class="st2" x1="577.31" y1="343.95" x2="614.02" y2="376.41"/>
		</g>
		<g>
			<line class="st2" x1="595.33" y1="459.8" x2="632.04" y2="492.26"/>
			<line class="st2" x1="590.17" y1="465.64" x2="626.88" y2="498.1"/>
			<line class="st2" x1="585.01" y1="471.48" x2="621.72" y2="503.94"/>
			<line class="st2" x1="579.84" y1="477.32" x2="616.55" y2="509.78"/>
			<line class="st2" x1="574.68" y1="483.16" x2="611.39" y2="515.62"/>
			<line class="st2" x1="569.51" y1="489" x2="606.22" y2="521.46"/>
		</g>
		<g>
			<line class="st2" x1="730.25" y1="99.5" x2="766.96" y2="131.96"/>
			<line class="st2" x1="725.09" y1="105.34" x2="761.8" y2="137.8"/>
			<line class="st2" x1="719.92" y1="111.18" x2="756.63" y2="143.64"/>
			<line class="st2" x1="714.76" y1="117.02" x2="751.47" y2="149.48"/>
			<line class="st2" x1="709.6" y1="122.86" x2="746.31" y2="155.32"/>
			<line class="st2" x1="704.43" y1="128.7" x2="741.14" y2="161.16"/>
		</g>
		<g>
			<line class="st2" x1="118.83" y1="-14.37" x2="155.54" y2="18.1"/>
			<line class="st2" x1="113.66" y1="-8.53" x2="150.37" y2="23.94"/>
			<line class="st2" x1="108.5" y1="-2.68" x2="145.21" y2="29.78"/>
			<line class="st2" x1="103.33" y1="3.16" x2="140.04" y2="35.62"/>
			<line class="st2" x1="98.17" y1="9" x2="134.88" y2="41.46"/>
			<line class="st2" x1="93.01" y1="14.84" x2="129.72" y2="47.3"/>
		</g>
	</g>
</g>
<polygon class="st0" points="366.99,141.22 380.82,127.39 366.3,112.86 351.62,127.54 "/>
<polygon class="st3" points="420.38,488.24 427.53,450.17 399.87,450.17 "/>
<polygon class="st4" points="711.89,230.02 723.68,207.1 696.02,207.1 "/>
<polygon class="st4" points="311.92,338.5 323.71,315.58 296.06,315.58 "/>
<polygon class="st4" points="694.47,400.18 705.07,379.57 680.21,379.57 "/>
<polygon class="st4" points="47.77,148.05 59.56,125.13 31.91,125.13 "/>
<polygon class="st5" points="64.33,323.76 54.73,308.79 33.74,323.76 "/>
<polygon class="st6" points="396.73,252.94 383.11,232.64 375.4,260.42 "/>
<polygon class="st5" points="473.57,93.07 458.28,76.55 442.98,93.07 "/>
<polygon class="st5" points="275.05,270.57 257.8,255.61 244.46,270.57 "/>
<polygon class="st5" points="716.34,317.98 702.58,297.79 691.94,317.98 "/>
<polygon class="st7" points="148.53,311.25 142.99,298.56 109.48,298.56 "/>
<polygon class="st7" points="306.96,61.69 313.63,41.6 287.43,41.6 "/>
<polygon class="st7" points="224.27,384.18 230.94,364.09 204.75,364.09 "/>
<polygon class="st8" points="296.43,115.92 271.7,129.26 263.08,107.13 "/>
<polygon class="st8" points="59.94,464.09 35.21,477.43 26.59,455.31 "/>
<polygon class="st8" points="644.85,136.46 617.26,141.06 615.66,118.64 "/>
<polygon class="st8" points="44.21,41.75 17.29,33.7 26.84,11.95 "/>
<polygon class="st0" points="557.42,57.72 571.25,43.89 556.73,29.37 542.05,44.04 "/>
<polygon class="st0" points="430.17,312.55 449.71,313.52 450.72,293 429.99,291.98 "/>
<polygon class="st0" points="98.46,189.73 112.29,175.9 97.76,161.38 83.09,176.05 "/>
<polygon class="st3" points="199.04,67.61 206.2,29.54 178.54,29.54 "/>
<polygon class="st4" points="191.62,224.18 203.41,201.27 175.75,201.27 "/>
<polygon class="st8" points="698.33,31.51 721.25,43.3 721.25,15.64 "/>
<polygon class="st4" points="560.49,309.56 572.28,286.64 544.63,286.64 "/>
<polygon class="st4" points="640.3,65.73 647.98,50.8 629.96,50.8 "/>
<polygon class="st4" points="536.61,111.09 524.17,135.27 553.36,135.27 "/>
<polygon class="st5" points="493.79,343.66 484.19,328.7 463.2,343.66 "/>
<polygon class="st5" points="281.75,457.97 298.27,442.68 281.75,427.38 "/>
<polygon class="st5" points="189.6,126 172.34,111.03 159.01,126 "/>
<polygon class="st7" points="522.2,441.29 516.67,428.6 483.15,428.6 "/>
<polygon class="st7" points="300.17,213.18 306.84,193.1 280.64,193.1 "/>
<polygon class="st7" points="113.67,74.28 120.34,54.19 94.14,54.19 "/>
<polygon class="st7" points="460.32,163.89 466.99,143.81 440.8,143.81 "/>
<polygon class="st8" points="625.77,447.63 601.03,460.98 592.41,438.85 "/>
<polygon class="st8" points="652.16,262.05 627.43,275.39 618.81,253.26 "/>
<polygon class="st8" points="78.9,245.14 54.17,258.48 45.54,236.35 "/>
<polygon class="st8" points="116.6,388.48 102.98,400.58 97.7,383.51 "/>
<polygon class="st0" points="612.92,392.83 624.35,381.4 612.35,369.4 600.22,381.53 "/>
<polygon class="st0" points="364.25,379.7 378.08,365.87 363.38,355.33 348.89,366.02 "/>
<polygon class="st0" points="415.18,31.73 427.48,31.73 427.48,18.81 414.43,18.81 "/>
<polygon class="st0" points="204.65,462.2 218.48,448.37 203.96,433.85 189.29,448.53 "/>
<polygon class="st0" points="576,214.72 595.54,215.69 596.55,195.18 575.82,194.15 "/>
<polygon class="st0" points="692.87,468.62 706.08,469.42 706.61,455.53 692.59,454.68 "/>
<polygon class="st0" points="691.1,146.62 710.63,147.58 711.64,127.07 690.92,126.05 "/>
<polygon class="st5" points="498.92,208.69 487.63,226.68 476.33,208.69 "/>
<g>
	<polyline class="st9" points="623.65,8.95 632.19,16.68 640.73,8.95 649.27,16.68 657.82,8.95 666.36,16.68 	"/>
</g>
<g>
	<polyline class="st9" points="345.27,420.58 353.81,428.31 362.35,420.58 370.89,428.31 379.43,420.58 387.98,428.31 	"/>
</g>
<g>
	<polyline class="st9" points="570.54,336.84 579.08,344.57 587.62,336.84 596.16,344.57 604.7,336.84 613.25,344.57 	"/>
</g>
<g>
	<polyline class="st9" points="61.55,22.05 70.08,29.78 78.63,22.05 87.16,29.78 95.71,22.05 104.25,29.78 	"/>
</g>
<g>
	<line class="st9" x1="229.74" y1="18.66" x2="234.23" y2="23.15"/>
	<line class="st9" x1="244.18" y1="18.98" x2="239.69" y2="23.47"/>
	<line class="st9" x1="243.86" y1="33.41" x2="239.37" y2="28.92"/>
	<line class="st9" x1="229.42" y1="33.09" x2="233.91" y2="28.6"/>
</g>
<g>
	<line class="st9" x1="562.68" y1="84.18" x2="567.18" y2="88.67"/>
	<line class="st9" x1="577.12" y1="84.5" x2="572.63" y2="89"/>
	<line class="st9" x1="576.8" y1="98.94" x2="572.31" y2="94.45"/>
	<line class="st9" x1="562.36" y1="98.62" x2="566.85" y2="94.13"/>
</g>
<g>
	<line class="st10" x1="694" y1="253.28" x2="698.5" y2="257.77"/>
	<line class="st10" x1="708.44" y1="253.6" x2="703.95" y2="258.09"/>
	<line class="st10" x1="708.12" y1="268.04" x2="703.63" y2="263.55"/>
	<line class="st10" x1="693.68" y1="267.72" x2="698.18" y2="263.23"/>
</g>
<g>
	<line class="st10" x1="156.53" y1="405.16" x2="161.02" y2="409.65"/>
	<line class="st10" x1="170.97" y1="405.48" x2="166.48" y2="409.97"/>
	<line class="st10" x1="170.65" y1="419.92" x2="166.16" y2="415.43"/>
	<line class="st10" x1="156.21" y1="419.6" x2="160.7" y2="415.11"/>
</g>
<g>
	<line class="st10" x1="236.89" y1="200.3" x2="241.39" y2="204.8"/>
	<line class="st10" x1="251.33" y1="200.63" x2="246.84" y2="205.12"/>
	<line class="st10" x1="251.01" y1="215.06" x2="246.52" y2="210.57"/>
	<line class="st10" x1="236.57" y1="214.74" x2="241.07" y2="210.25"/>
</g>
<g>
	<path class="st11" d="M123.94,246.1c0,2.49-2.02,4.52-4.52,4.52c-2.49,0-4.52-2.02-4.52-4.52c0-2.49,2.02-4.52,4.52-4.52
		C121.92,241.59,123.94,243.61,123.94,246.1z"/>
	<path class="st11" d="M141.44,241.59c2.49,0,4.52,2.02,4.52,4.52c0,2.49-2.02,4.52-4.52,4.52"/>
	<line class="st11" x1="119.43" y1="241.59" x2="141.44" y2="241.59"/>
	<line class="st11" x1="119.43" y1="250.62" x2="141.44" y2="250.62"/>
</g>
<g>
	<path class="st12" d="M372.72,83.46c0,2.49-2.02,4.52-4.52,4.52c-2.49,0-4.52-2.02-4.52-4.52c0-2.49,2.02-4.52,4.52-4.52
		C370.7,78.95,372.72,80.97,372.72,83.46z"/>
	<path class="st12" d="M390.22,78.95c2.49,0,4.52,2.02,4.52,4.52c0,2.49-2.02,4.52-4.52,4.52"/>
	<line class="st12" x1="368.2" y1="78.95" x2="390.22" y2="78.95"/>
	<line class="st12" x1="368.2" y1="87.98" x2="390.22" y2="87.98"/>
</g>
<g>
	<path class="st13" d="M495.34,267.07c0,2.49-2.02,4.52-4.52,4.52s-4.52-2.02-4.52-4.52c0-2.49,2.02-4.52,4.52-4.52
		S495.34,264.57,495.34,267.07z"/>
	<path class="st13" d="M512.84,262.55c2.49,0,4.52,2.02,4.52,4.52c0,2.49-2.02,4.52-4.52,4.52"/>
	<line class="st13" x1="490.82" y1="262.55" x2="512.84" y2="262.55"/>
	<line class="st13" x1="490.82" y1="271.58" x2="512.84" y2="271.58"/>
</g>
<g>
	<path class="st13" d="M156.64,360.98c0,2.49-2.02,4.52-4.52,4.52s-4.52-2.02-4.52-4.52c0-2.49,2.02-4.52,4.52-4.52
		S156.64,358.48,156.64,360.98z"/>
	<path class="st13" d="M174.13,356.46c2.49,0,4.52,2.02,4.52,4.52c0,2.49-2.02,4.52-4.52,4.52"/>
	<line class="st13" x1="152.12" y1="356.46" x2="174.13" y2="356.46"/>
	<line class="st13" x1="152.12" y1="365.5" x2="174.13" y2="365.5"/>
</g>
<g>
	<path class="st11" d="M647.01,415.11c0,2.49-2.02,4.52-4.52,4.52c-2.49,0-4.52-2.02-4.52-4.52c0-2.49,2.02-4.52,4.52-4.52
		C644.98,410.59,647.01,412.61,647.01,415.11z"/>
	<path class="st11" d="M664.51,410.59c2.49,0,4.52,2.02,4.52,4.52c0,2.49-2.02,4.52-4.52,4.52"/>
	<line class="st11" x1="642.49" y1="410.59" x2="664.51" y2="410.59"/>
	<line class="st11" x1="642.49" y1="419.62" x2="664.51" y2="419.62"/>
</g>
<g>
	<path class="st13" d="M433.89,377.92c0,2.49-2.02,4.52-4.52,4.52s-4.52-2.02-4.52-4.52c0-2.49,2.02-4.52,4.52-4.52
		S433.89,375.42,433.89,377.92z"/>
	<path class="st13" d="M451.39,373.4c2.49,0,4.52,2.02,4.52,4.52c0,2.49-2.02,4.52-4.52,4.52"/>
	<line class="st13" x1="429.37" y1="373.4" x2="451.39" y2="373.4"/>
	<line class="st13" x1="429.37" y1="382.43" x2="451.39" y2="382.43"/>
</g>
<path class="st14" d="M321.5,145.55l9.7,9.7l-9.7,9.7l-9.7-9.7L321.5,145.55z M328.35,155.25l-6.85-6.85l-6.85,6.85l6.85,6.85
	L328.35,155.25z"/>
<path class="st5" d="M656.99,180.13l9.7,9.7l-9.7,9.7l-9.7-9.7L656.99,180.13z M663.84,189.83l-6.85-6.85l-6.85,6.85l6.85,6.85
	L663.84,189.83z"/>
<path class="st14" d="M48.11,182.53l9.7,9.7l-9.7,9.7l-9.7-9.7L48.11,182.53z M54.96,192.23l-6.85-6.85l-6.85,6.85l6.85,6.85
	L54.96,192.23z"/>
<path class="st5" d="M558.71,392.28l9.7,9.7l-9.7,9.7l-9.7-9.7L558.71,392.28z M565.56,401.98l-6.85-6.85l-6.85,6.85l6.85,6.85
	L565.56,401.98z"/>
<path class="st15" d="M329.78,452.21l9.7,9.7l-9.7,9.7l-9.7-9.7L329.78,452.21z M336.63,461.91l-6.85-6.85l-6.85,6.85l6.85,6.85
	L336.63,461.91z"/>
<path class="st14" d="M659.99,88.44l9.7,9.7l-9.7,9.7l-9.7-9.7L659.99,88.44z M666.84,98.14l-6.85-6.85l-6.85,6.85l6.85,6.85
	L666.84,98.14z"/>
<path class="st15" d="M499.38,26.11l9.7,9.7l-9.7,9.7l-9.7-9.7L499.38,26.11z M506.23,35.81l-6.85-6.85l-6.85,6.85l6.85,6.85
	L506.23,35.81z"/>
<path class="st15" d="M457.43,224.48l9.7,9.7l-9.7,9.7l-9.7-9.7L457.43,224.48z M464.28,234.18l-6.85-6.85l-6.85,6.85l6.85,6.85
	L464.28,234.18z"/>
<path class="st15" d="M350.37,303.82l9.7,9.7l-9.7,9.7l-9.7-9.7L350.37,303.82z M357.22,313.52l-6.85-6.85l-6.85,6.85l6.85,6.85
	L357.22,313.52z"/>
<path class="st15" d="M108.04,439.02l9.7,9.7l-9.7,9.7l-9.7-9.7L108.04,439.02z M114.89,448.73l-6.85-6.85l-6.85,6.85l6.85,6.85
	L114.89,448.73z"/>
<path class="st15" d="M408.62,176.98h17.95v17.95h-17.95V176.98z M423.93,179.61h-12.68v12.68h12.68V179.61z"/>
<path class="st5" d="M99.67,104.15h17.95v17.95H99.67V104.15z M114.98,106.78H102.3v12.68h12.68V106.78z"/>
<path class="st14" d="M640.82,300.72h17.95v17.95h-17.95V300.72z M656.14,303.35h-12.68v12.68h12.68V303.35z"/>
<path class="st15" d="M280.05,367.84H298v17.95h-17.95V367.84z M295.36,370.47h-12.68v12.68h12.68V370.47z"/>
<path class="st15" d="M474.22,455.33h17.95v17.95h-17.95V455.33z M489.53,457.97h-12.68v12.68h12.68V457.97z"/>
<path class="st15" d="M349.57,27.44h17.95v17.95h-17.95V27.44z M364.88,30.08H352.2v12.68h12.68V30.08z"/>
<path class="st5" d="M32.17,349.26h17.95v17.95H32.17V349.26z M47.48,351.89H34.8v12.68h12.68V351.89z"/>
<path class="st16" d="M165.62,159.6c0.14,0,0.27,0.05,0.37,0.15l6.29,6.29l6.32-6.32l6.41,6.41l6.49-6.49l6.41,6.41l5.95-5.95
	c0.21-0.21,0.54-0.21,0.75,0c0.21,0.21,0.21,0.54,0,0.75l-6.7,6.7l-6.41-6.41l-6.49,6.49l-6.41-6.41l-6.32,6.32l-7.04-7.04
	c-0.21-0.21-0.21-0.54,0-0.75C165.35,159.65,165.49,159.6,165.62,159.6z"/>
<path class="st17" d="M340.94,200.84c0.14,0,0.27,0.05,0.37,0.15l6.29,6.29l6.32-6.32l6.41,6.41l6.49-6.49l6.41,6.41l5.95-5.95
	c0.21-0.21,0.54-0.21,0.75,0c0.21,0.21,0.21,0.54,0,0.75l-6.7,6.7l-6.41-6.41l-6.49,6.49l-6.41-6.41l-6.32,6.32l-7.04-7.04
	c-0.21-0.21-0.21-0.54,0-0.75C340.67,200.89,340.8,200.84,340.94,200.84z"/>
<path class="st18" d="M551.94,157.29c0.14,0,0.27,0.05,0.37,0.15l6.29,6.29l6.32-6.32l6.41,6.41l6.49-6.49l6.41,6.41l5.95-5.95
	c0.21-0.21,0.54-0.21,0.75,0c0.21,0.21,0.21,0.54,0,0.75l-6.7,6.7l-6.41-6.41l-6.49,6.49l-6.41-6.41l-6.32,6.32l-7.04-7.04
	c-0.21-0.21-0.21-0.54,0-0.75C551.67,157.34,551.8,157.29,551.94,157.29z"/>
<path class="st18" d="M229.41,323.9c0.14,0,0.27,0.05,0.37,0.15l6.29,6.29l6.32-6.32l6.41,6.41l6.49-6.49l6.41,6.41l5.95-5.95
	c0.21-0.21,0.54-0.21,0.75,0c0.21,0.21,0.21,0.54,0,0.75l-6.7,6.7l-6.41-6.41l-6.49,6.49l-6.41-6.41l-6.32,6.32l-7.04-7.04
	c-0.21-0.21-0.21-0.54,0-0.75C229.14,323.95,229.28,323.9,229.41,323.9z"/>
<path class="st16" d="M19.73,279.8c0.14,0,0.27,0.05,0.37,0.15l6.29,6.29l6.32-6.32l6.41,6.41l6.49-6.49l6.41,6.41l5.95-5.95
	c0.21-0.21,0.54-0.21,0.75,0c0.21,0.21,0.21,0.54,0,0.75l-6.7,6.7l-6.41-6.41l-6.49,6.49l-6.41-6.41l-6.32,6.32l-7.04-7.04
	c-0.21-0.21-0.21-0.54,0-0.75C19.46,279.85,19.6,279.8,19.73,279.8z"/>
<path class="st18" d="M513.52,365.17c0.14,0,0.27,0.05,0.37,0.15l6.29,6.29l6.32-6.32l6.41,6.41l6.49-6.49l6.41,6.41l5.95-5.95
	c0.21-0.21,0.54-0.21,0.75,0c0.21,0.21,0.21,0.54,0,0.75l-6.7,6.7l-6.41-6.41l-6.49,6.49l-6.41-6.41l-6.32,6.32l-7.04-7.04
	c-0.21-0.21-0.21-0.54,0-0.75C513.25,365.22,513.39,365.17,513.52,365.17z"/>
<path class="st17" d="M699.66,63.67c0.14,0,0.27,0.05,0.37,0.15l6.29,6.29l6.32-6.32l6.41,6.41l6.49-6.49l6.41,6.41l5.95-5.95
	c0.21-0.21,0.54-0.21,0.75,0c0.21,0.21,0.21,0.54,0,0.75l-6.7,6.7l-6.41-6.41l-6.49,6.49l-6.41-6.41l-6.32,6.32l-7.04-7.04
	c-0.21-0.21-0.21-0.54,0-0.75C699.39,63.72,699.52,63.67,699.66,63.67z"/>
<path class="st17" d="M699.61,478.8c0.14,0,0.27,0.05,0.37,0.15l6.29,6.29l6.32-6.32l6.41,6.41l6.49-6.49l6.41,6.41l5.95-5.95
	c0.21-0.21,0.54-0.21,0.75,0c0.21,0.21,0.21,0.54,0,0.75l-6.7,6.7l-6.41-6.41l-6.49,6.49l-6.41-6.41l-6.32,6.32l-7.04-7.04
	c-0.21-0.21-0.21-0.54,0-0.75C699.34,478.85,699.48,478.8,699.61,478.8z"/>
<path class="st16" d="M131.99,465.72c0.14,0,0.27,0.05,0.37,0.15l6.29,6.29l6.32-6.32l6.41,6.41l6.49-6.49l6.41,6.41l5.95-5.95
	c0.21-0.21,0.54-0.21,0.75,0c0.21,0.21,0.21,0.54,0,0.75l-6.7,6.7l-6.41-6.41l-6.49,6.49l-6.41-6.41l-6.32,6.32l-7.04-7.04
	c-0.21-0.21-0.21-0.54,0-0.75C131.72,465.77,131.85,465.72,131.99,465.72z"/>
<path class="st18" d="M279.49,17.99c0.14,0,0.27,0.05,0.37,0.15l6.29,6.29l6.32-6.32l6.41,6.41l6.49-6.49l6.41,6.41l5.95-5.95
	c0.21-0.21,0.54-0.21,0.75,0c0.21,0.21,0.21,0.54,0,0.75l-6.7,6.7l-6.41-6.41l-6.49,6.49l-6.41-6.41l-6.32,6.32l-7.04-7.04
	c-0.21-0.21-0.21-0.54,0-0.75C279.22,18.04,279.35,17.99,279.49,17.99z"/>
<g>
	<path class="st0" d="M556.17,16.26c-1.11,0-2.01,0.9-2.01,2.01c0,1.11,0.9,2.01,2.01,2.01c1.11,0,2.01-0.9,2.01-2.01
		C558.17,17.16,557.28,16.26,556.17,16.26z"/>
	<path class="st0" d="M567.73,16.26c-1.11,0-2.01,0.9-2.01,2.01c0,1.11,0.9,2.01,2.01,2.01c1.11,0,2.01-0.9,2.01-2.01
		C569.73,17.16,568.84,16.26,567.73,16.26z"/>
	<path class="st0" d="M579.29,16.26c-1.11,0-2.01,0.9-2.01,2.01c0,1.11,0.9,2.01,2.01,2.01c1.11,0,2.01-0.9,2.01-2.01
		C581.29,17.16,580.4,16.26,579.29,16.26z"/>
	<path class="st0" d="M590.85,16.26c-1.11,0-2.01,0.9-2.01,2.01c0,1.11,0.9,2.01,2.01,2.01s2.01-0.9,2.01-2.01
		C592.85,17.16,591.95,16.26,590.85,16.26z"/>
	<path class="st0" d="M602.41,16.26c-1.11,0-2.01,0.9-2.01,2.01c0,1.11,0.9,2.01,2.01,2.01s2.01-0.9,2.01-2.01
		C604.41,17.16,603.51,16.26,602.41,16.26z"/>
	<path class="st0" d="M561.79,24.95c-1.11,0-2.01,0.9-2.01,2.01c0,1.11,0.9,2.01,2.01,2.01c1.11,0,2.01-0.9,2.01-2.01
		C563.8,25.85,562.9,24.95,561.79,24.95z"/>
	<path class="st0" d="M573.35,24.95c-1.11,0-2.01,0.9-2.01,2.01c0,1.11,0.9,2.01,2.01,2.01c1.11,0,2.01-0.9,2.01-2.01
		C575.36,25.85,574.46,24.95,573.35,24.95z"/>
	<path class="st0" d="M584.91,24.95c-1.11,0-2.01,0.9-2.01,2.01c0,1.11,0.9,2.01,2.01,2.01c1.11,0,2.01-0.9,2.01-2.01
		C586.92,25.85,586.02,24.95,584.91,24.95z"/>
	<path class="st0" d="M596.47,24.95c-1.11,0-2.01,0.9-2.01,2.01c0,1.11,0.9,2.01,2.01,2.01c1.11,0,2.01-0.9,2.01-2.01
		C598.47,25.85,597.58,24.95,596.47,24.95z"/>
	<path class="st0" d="M608.03,24.95c-1.11,0-2.01,0.9-2.01,2.01c0,1.11,0.9,2.01,2.01,2.01c1.11,0,2.01-0.9,2.01-2.01
		C610.03,25.85,609.14,24.95,608.03,24.95z"/>
	<path class="st0" d="M556.17,34.66c-1.11,0-2.01,0.9-2.01,2.01c0,1.11,0.9,2.01,2.01,2.01c1.11,0,2.01-0.9,2.01-2.01
		C558.17,35.56,557.28,34.66,556.17,34.66z"/>
	<path class="st0" d="M567.73,34.66c-1.11,0-2.01,0.9-2.01,2.01c0,1.11,0.9,2.01,2.01,2.01c1.11,0,2.01-0.9,2.01-2.01
		C569.73,35.56,568.84,34.66,567.73,34.66z"/>
	<path class="st0" d="M579.29,34.66c-1.11,0-2.01,0.9-2.01,2.01c0,1.11,0.9,2.01,2.01,2.01c1.11,0,2.01-0.9,2.01-2.01
		C581.29,35.56,580.4,34.66,579.29,34.66z"/>
	<path class="st0" d="M590.85,34.66c-1.11,0-2.01,0.9-2.01,2.01c0,1.11,0.9,2.01,2.01,2.01s2.01-0.9,2.01-2.01
		C592.85,35.56,591.95,34.66,590.85,34.66z"/>
	<path class="st0" d="M602.41,34.66c-1.11,0-2.01,0.9-2.01,2.01c0,1.11,0.9,2.01,2.01,2.01s2.01-0.9,2.01-2.01
		C604.41,35.56,603.51,34.66,602.41,34.66z"/>
	<path class="st0" d="M561.79,43.35c-1.11,0-2.01,0.9-2.01,2.01c0,1.11,0.9,2.01,2.01,2.01c1.11,0,2.01-0.9,2.01-2.01
		C563.8,44.25,562.9,43.35,561.79,43.35z"/>
	<path class="st0" d="M573.35,43.35c-1.11,0-2.01,0.9-2.01,2.01c0,1.11,0.9,2.01,2.01,2.01c1.11,0,2.01-0.9,2.01-2.01
		C575.36,44.25,574.46,43.35,573.35,43.35z"/>
	<path class="st0" d="M584.91,43.35c-1.11,0-2.01,0.9-2.01,2.01c0,1.11,0.9,2.01,2.01,2.01c1.11,0,2.01-0.9,2.01-2.01
		C586.92,44.25,586.02,43.35,584.91,43.35z"/>
	<path class="st0" d="M596.47,43.35c-1.11,0-2.01,0.9-2.01,2.01c0,1.11,0.9,2.01,2.01,2.01c1.11,0,2.01-0.9,2.01-2.01
		C598.47,44.25,597.58,43.35,596.47,43.35z"/>
	<path class="st0" d="M608.03,43.35c-1.11,0-2.01,0.9-2.01,2.01c0,1.11,0.9,2.01,2.01,2.01c1.11,0,2.01-0.9,2.01-2.01
		C610.03,44.25,609.14,43.35,608.03,43.35z"/>
	<path class="st0" d="M556.17,53.06c-1.11,0-2.01,0.9-2.01,2.01c0,1.11,0.9,2.01,2.01,2.01c1.11,0,2.01-0.9,2.01-2.01
		C558.17,53.96,557.28,53.06,556.17,53.06z"/>
	<path class="st0" d="M567.73,53.06c-1.11,0-2.01,0.9-2.01,2.01c0,1.11,0.9,2.01,2.01,2.01c1.11,0,2.01-0.9,2.01-2.01
		C569.73,53.96,568.84,53.06,567.73,53.06z"/>
	<path class="st0" d="M579.29,53.06c-1.11,0-2.01,0.9-2.01,2.01c0,1.11,0.9,2.01,2.01,2.01c1.11,0,2.01-0.9,2.01-2.01
		C581.29,53.96,580.4,53.06,579.29,53.06z"/>
	<path class="st0" d="M590.85,53.06c-1.11,0-2.01,0.9-2.01,2.01c0,1.11,0.9,2.01,2.01,2.01s2.01-0.9,2.01-2.01
		C592.85,53.96,591.95,53.06,590.85,53.06z"/>
	<path class="st0" d="M602.41,53.06c-1.11,0-2.01,0.9-2.01,2.01c0,1.11,0.9,2.01,2.01,2.01s2.01-0.9,2.01-2.01
		C604.41,53.96,603.51,53.06,602.41,53.06z"/>
	<path class="st0" d="M561.79,61.75c-1.11,0-2.01,0.9-2.01,2.01c0,1.11,0.9,2.01,2.01,2.01c1.11,0,2.01-0.9,2.01-2.01
		C563.8,62.65,562.9,61.75,561.79,61.75z"/>
	<path class="st0" d="M573.35,61.75c-1.11,0-2.01,0.9-2.01,2.01c0,1.11,0.9,2.01,2.01,2.01c1.11,0,2.01-0.9,2.01-2.01
		C575.36,62.65,574.46,61.75,573.35,61.75z"/>
	<path class="st0" d="M584.91,61.75c-1.11,0-2.01,0.9-2.01,2.01c0,1.11,0.9,2.01,2.01,2.01c1.11,0,2.01-0.9,2.01-2.01
		C586.92,62.65,586.02,61.75,584.91,61.75z"/>
	<path class="st0" d="M596.47,61.75c-1.11,0-2.01,0.9-2.01,2.01c0,1.11,0.9,2.01,2.01,2.01c1.11,0,2.01-0.9,2.01-2.01
		C598.47,62.65,597.58,61.75,596.47,61.75z"/>
	<path class="st0" d="M608.03,61.75c-1.11,0-2.01,0.9-2.01,2.01c0,1.11,0.9,2.01,2.01,2.01c1.11,0,2.01-0.9,2.01-2.01
		C610.03,62.65,609.14,61.75,608.03,61.75z"/>
</g>
<path class="st19" d="M244.71,67.36c-1.15,5.33-6.1,7.64-7.95,8.32c-0.21,0.08-0.21,0.38,0,0.46c1.84,0.68,6.8,2.98,7.95,8.32
	c0.06,0.26,0.42,0.26,0.48,0c1.15-5.33,6.11-7.64,7.95-8.32c0.21-0.08,0.21-0.38,0-0.46c-1.84-0.68-6.8-2.98-7.95-8.32
	C245.13,67.1,244.77,67.1,244.71,67.36z"/>
<path class="st20" d="M515.64,162.25c-1.14,5.33-6.1,7.64-7.95,8.32c-0.21,0.08-0.21,0.38,0,0.46c1.84,0.68,6.8,2.98,7.95,8.32
	c0.06,0.26,0.42,0.26,0.48,0c1.15-5.34,6.1-7.64,7.95-8.32c0.21-0.08,0.21-0.38,0-0.46c-1.84-0.68-6.8-2.98-7.95-8.32
	C516.06,161.99,515.7,161.99,515.64,162.25z"/>
<path class="st20" d="M331.61,253.35c-1.15,5.33-6.11,7.64-7.95,8.32c-0.21,0.08-0.21,0.38,0,0.46c1.84,0.68,6.8,2.98,7.95,8.32
	c0.06,0.26,0.42,0.26,0.48,0c1.14-5.33,6.11-7.64,7.95-8.32c0.21-0.08,0.21-0.38,0-0.46c-1.84-0.68-6.8-2.98-7.95-8.32
	C332.03,253.09,331.66,253.09,331.61,253.35z"/>
<path class="st20" d="M63.17,400.8c-1.15,5.33-6.1,7.64-7.95,8.32c-0.21,0.08-0.21,0.38,0,0.46c1.84,0.68,6.8,2.98,7.95,8.32
	c0.06,0.26,0.42,0.26,0.48,0c1.15-5.33,6.11-7.64,7.95-8.32c0.21-0.08,0.21-0.38,0-0.46c-1.84-0.68-6.8-2.98-7.95-8.32
	C63.59,400.54,63.23,400.54,63.17,400.8z"/>
<path class="st19" d="M46.43,78.9c-1.15,5.33-6.1,7.64-7.95,8.32c-0.21,0.08-0.21,0.38,0,0.46c1.84,0.68,6.8,2.98,7.95,8.32
	c0.06,0.26,0.42,0.26,0.48,0c1.15-5.33,6.1-7.64,7.95-8.32c0.21-0.08,0.21-0.38,0-0.46c-1.84-0.68-6.8-2.98-7.95-8.32
	C46.85,78.64,46.48,78.64,46.43,78.9z"/>
<path class="st21" d="M576.28,239.85c-1.15,5.33-6.1,7.64-7.95,8.32c-0.21,0.08-0.21,0.38,0,0.46c1.84,0.68,6.8,2.98,7.95,8.32
	c0.06,0.26,0.42,0.26,0.48,0c1.15-5.34,6.11-7.64,7.95-8.32c0.21-0.08,0.21-0.38,0-0.46c-1.84-0.68-6.8-2.98-7.95-8.32
	C576.7,239.59,576.33,239.59,576.28,239.85z"/>
<path class="st20" d="M547.11,453.73c-1.15,5.33-6.1,7.64-7.95,8.32c-0.21,0.08-0.21,0.38,0,0.46c1.84,0.68,6.8,2.98,7.95,8.32
	c0.06,0.26,0.42,0.26,0.48,0c1.14-5.34,6.1-7.64,7.95-8.32c0.21-0.08,0.21-0.38,0-0.46c-1.84-0.68-6.8-2.98-7.95-8.32
	C547.53,453.47,547.17,453.47,547.11,453.73z"/>
<path class="st19" d="M407.22,319.25c-1.14,5.33-6.11,7.64-7.95,8.32c-0.21,0.08-0.21,0.38,0,0.46c1.84,0.68,6.8,2.98,7.95,8.32
	c0.06,0.26,0.42,0.26,0.48,0c1.15-5.33,6.11-7.64,7.95-8.32c0.21-0.08,0.21-0.38,0-0.46c-1.84-0.68-6.8-2.98-7.95-8.32
	C407.64,318.99,407.28,318.99,407.22,319.25z"/>
<path class="st19" d="M726.43,157.21c-1.14,5.33-6.1,7.64-7.95,8.32c-0.21,0.08-0.21,0.38,0,0.46c1.84,0.68,6.8,2.98,7.95,8.32
	c0.06,0.26,0.42,0.26,0.48,0c1.15-5.34,6.1-7.64,7.95-8.32c0.21-0.08,0.21-0.38,0-0.46c-1.84-0.68-6.8-2.98-7.95-8.32
	C726.85,156.95,726.48,156.95,726.43,157.21z"/>
<path class="st20" d="M451.51,106.98c-1.14,5.33-6.11,7.64-7.95,8.32c-0.21,0.08-0.21,0.38,0,0.46c1.84,0.68,6.8,2.98,7.95,8.32
	c0.06,0.26,0.42,0.26,0.48,0c1.15-5.33,6.11-7.64,7.95-8.32c0.21-0.08,0.21-0.38,0-0.46c-1.84-0.68-6.8-2.98-7.95-8.32
	C451.93,106.72,451.57,106.72,451.51,106.98z"/>
<path class="st21" d="M193.88,290.08c-1.15,5.33-6.1,7.64-7.95,8.32c-0.21,0.08-0.21,0.38,0,0.46c1.84,0.68,6.8,2.98,7.95,8.32
	c0.06,0.26,0.42,0.26,0.48,0c1.15-5.33,6.11-7.64,7.95-8.32c0.21-0.08,0.21-0.38,0-0.46c-1.84-0.68-6.8-2.98-7.95-8.32
	C194.3,289.82,193.93,289.82,193.88,290.08z"/>
<g>
	<line class="st22" x1="247.05" y1="142.38" x2="247.05" y2="153.5"/>
	<line class="st22" x1="241.49" y1="147.94" x2="252.61" y2="147.94"/>
</g>
<g>
	<line class="st23" x1="426.9" y1="48.94" x2="426.9" y2="60.06"/>
	<line class="st23" x1="421.35" y1="54.5" x2="432.46" y2="54.5"/>
</g>
<g>
	<line class="st22" x1="139.03" y1="191.53" x2="139.03" y2="202.65"/>
	<line class="st22" x1="133.47" y1="197.09" x2="144.58" y2="197.09"/>
</g>
<g>
	<line class="st22" x1="398.28" y1="277.95" x2="398.28" y2="289.06"/>
	<line class="st22" x1="392.72" y1="283.51" x2="403.84" y2="283.51"/>
</g>
<g>
	<line class="st22" x1="513.86" y1="91.61" x2="513.86" y2="102.73"/>
	<line class="st22" x1="508.3" y1="97.17" x2="519.42" y2="97.17"/>
</g>
<g>
	<line class="st22" x1="651.05" y1="222.86" x2="651.05" y2="233.97"/>
	<line class="st22" x1="645.49" y1="228.42" x2="656.61" y2="228.42"/>
</g>
<g>
	<line class="st24" x1="523.58" y1="316.3" x2="523.58" y2="327.41"/>
	<line class="st24" x1="518.03" y1="321.86" x2="529.14" y2="321.86"/>
</g>
<g>
	<line class="st23" x1="719.64" y1="349.24" x2="719.64" y2="360.36"/>
	<line class="st23" x1="714.09" y1="354.8" x2="725.2" y2="354.8"/>
</g>
<g>
	<line class="st24" x1="248.13" y1="404.88" x2="248.13" y2="415.99"/>
	<line class="st24" x1="242.57" y1="410.43" x2="253.69" y2="410.43"/>
</g>
<g>
	<line class="st22" x1="104.46" y1="331.96" x2="104.46" y2="343.08"/>
	<line class="st22" x1="98.9" y1="337.52" x2="110.02" y2="337.52"/>
</g>
<g>
	<line class="st22" x1="378.29" y1="154.8" x2="378.29" y2="165.92"/>
	<line class="st22" x1="372.74" y1="160.36" x2="383.85" y2="160.36"/>
</g>
<path class="st19" d="M224.94,252.81c0,3.98-3.23,7.2-7.2,7.2s-7.2-3.23-7.2-7.2c0-3.98,3.23-7.2,7.2-7.2
	S224.94,248.83,224.94,252.81z"/>
<path class="st19" d="M167.71,77.6c0,3.98-3.23,7.2-7.2,7.2s-7.2-3.23-7.2-7.2c0-3.98,3.23-7.2,7.2-7.2S167.71,73.62,167.71,77.6z"
	/>
<path class="st19" d="M547.19,214.95c0,3.98-3.23,7.2-7.2,7.2s-7.2-3.23-7.2-7.2c0-3.98,3.23-7.2,7.2-7.2
	S547.19,210.97,547.19,214.95z"/>
<path class="st20" d="M659.45,470.28c0,3.98-3.23,7.2-7.2,7.2s-7.2-3.23-7.2-7.2c0-3.98,3.23-7.2,7.2-7.2
	S659.45,466.3,659.45,470.28z"/>
<path class="st19" d="M441.97,415.69c0,3.98-3.23,7.2-7.2,7.2c-3.98,0-7.2-3.23-7.2-7.2c0-3.98,3.23-7.2,7.2-7.2
	C438.75,408.49,441.97,411.71,441.97,415.69z"/>
<path class="st19" d="M32.12,429.34c0,3.98-3.23,7.2-7.2,7.2s-7.2-3.23-7.2-7.2c0-3.98,3.23-7.2,7.2-7.2S32.12,425.36,32.12,429.34z
	"/>
<path class="st19" d="M416.44,124.7c0,3.98-3.23,7.2-7.2,7.2c-3.98,0-7.2-3.23-7.2-7.2c0-3.98,3.23-7.2,7.2-7.2
	C413.22,117.5,416.44,120.72,416.44,124.7z"/>
<path class="st19" d="M618.95,80.68c0,3.98-3.23,7.2-7.2,7.2c-3.98,0-7.2-3.23-7.2-7.2c0-3.98,3.23-7.2,7.2-7.2
	C615.72,73.47,618.95,76.7,618.95,80.68z"/>
<path class="st19" d="M101.68,277.46c0,3.98-3.23,7.2-7.2,7.2s-7.2-3.23-7.2-7.2c0-3.98,3.23-7.2,7.2-7.2
	S101.68,273.48,101.68,277.46z"/>
<path class="st21" d="M28.16,59.11c0,3.98-3.23,7.2-7.2,7.2s-7.2-3.23-7.2-7.2c0-3.98,3.23-7.2,7.2-7.2S28.16,55.13,28.16,59.11z"/>
<path class="st19" d="M678.82,351.86c0,3.98-3.23,7.2-7.2,7.2s-7.2-3.23-7.2-7.2c0-3.98,3.23-7.2,7.2-7.2
	S678.82,347.88,678.82,351.86z"/>
<path class="st19" d="M258.85,474.54c0,3.98-3.23,7.2-7.2,7.2s-7.2-3.23-7.2-7.2c0-3.98,3.23-7.2,7.2-7.2
	S258.85,470.56,258.85,474.54z"/>
</svg>
